ply
format ascii 1.0
comment Created by Blender 2.76 (sub 0) - www.blender.org, source file: 'dumbship.blend'
element vertex 186
property float x
property float y
property float z
property float nx
property float ny
property float nz
property float s
property float t
element face 136
property list uchar uint vertex_indices
end_header
0.273098 -0.296416 0.787441 0.471877 -0.642567 0.603656 0.376052 0.351672
0.229815 0.000000 0.784960 0.600055 0.357555 0.715567 0.374514 0.379979
0.000000 0.000000 0.934238 0.000000 0.354900 0.934874 0.351000 0.377329
0.000000 -0.296416 0.934238 0.000000 -0.599750 0.800165 0.351189 0.357030
1.888318 0.000000 -0.214124 0.996887 0.051027 -0.060060 0.980028 0.168011
1.617571 0.074550 -0.246736 0.155370 0.987732 -0.013916 0.919103 0.169765
1.537485 0.074550 0.006551 0.104831 0.982116 0.156346 0.905948 0.114681
1.797130 0.000000 0.108206 0.779321 0.127110 0.613575 0.965727 0.095763
1.327021 0.074550 -0.229441 0.000000 1.000000 0.000000 0.857532 0.161600
1.227774 0.074550 0.048132 0.036317 0.989929 0.136601 0.840150 0.100508
1.339423 -0.074550 -0.129166 0.000000 -1.000000 0.000000 0.857788 0.350662
1.227962 -0.074550 -0.542014 0.000000 -0.880734 -0.473586 0.832741 0.264347
1.521097 -0.074550 -0.542014 0.071627 -0.886990 -0.456130 0.893352 0.265004
1.669447 -0.074550 -0.198687 0.193365 -0.980895 -0.019898 0.927160 0.334033
1.466472 0.000000 -0.591289 0.000000 0.000000 -1.000000 0.882551 0.246409
1.227962 0.074550 -0.542013 0.000000 0.880734 -0.473586 0.833359 0.226774
1.449105 0.074550 -0.542013 0.052797 0.886013 -0.460616 0.879371 0.227890
1.775578 0.000000 -0.591289 0.721519 0.019471 -0.692099 0.947663 0.248006
1.399174 0.000000 0.261302 0.317972 0.313700 0.894681 0.878116 0.440701
1.333965 -0.074550 0.240440 0.163671 -0.873714 0.458052 0.860045 0.428750
1.693005 -0.074550 0.077310 0.269051 -0.909146 0.317820 0.930822 0.390390
1.797130 0.000000 0.108206 0.779321 0.127110 0.613575 0.957510 0.399013
1.039834 0.000000 -0.827171 0.906186 0.000000 0.422834 0.633527 0.105292
1.039834 -0.112355 -0.827172 0.836024 -0.350597 0.422010 0.613500 0.089714
1.079382 -0.128118 -1.047917 0.776727 -0.305032 -0.551012 0.636684 0.043782
1.079383 0.000000 -1.047917 0.766900 0.000000 -0.641713 0.663232 0.060689
0.242662 0.296416 0.420464 0.314524 0.899899 0.302011 0.387196 0.436556
0.000000 0.296416 0.697379 0.000000 0.844935 0.534837 0.350714 0.408128
0.257400 0.296416 -0.045595 0.000000 1.000000 0.000000 0.404992 0.520601
0.000000 0.296416 0.097230 0.000000 1.000000 0.000000 0.349900 0.495707
0.273098 -0.296416 0.143680 0.000000 -1.000000 0.000000 0.398447 0.270751
0.000000 -0.296416 0.219394 0.000000 -1.000000 0.000000 0.351928 0.277566
1.039834 0.112356 -0.827171 0.836024 0.350597 0.422010 0.639151 0.679306
1.039834 0.000000 -0.827171 0.906186 0.000000 0.422834 0.661413 0.661405
1.079383 0.000000 -1.047917 0.766900 0.000000 -0.641713 0.695674 0.711124
1.079383 0.128119 -1.047916 0.776727 0.305032 -0.551012 0.666064 0.730642
1.399174 0.000000 0.261302 0.317972 0.313700 0.894681 0.881853 0.054338
1.888318 0.000000 -0.214124 0.996887 0.051027 -0.060060 0.976027 0.329117
0.711984 0.446736 -0.827171 0.374645 0.829890 0.413404 0.531091 0.718795
0.739064 0.509411 -1.047916 0.341136 0.781610 -0.522172 0.542143 0.776380
0.481609 0.296416 0.147789 0.473128 0.856258 0.207221 0.441899 0.473112
0.456111 0.000000 0.542014 0.670949 0.408094 0.619068 0.416639 0.383686
0.543749 0.000000 0.455627 0.614185 0.473891 0.631001 0.440454 0.383721
0.616645 0.074550 0.130181 0.456832 0.860988 0.223518 0.491333 0.447482
0.542014 -0.296416 0.542014 0.637928 -0.637623 0.431806 0.414763 0.340786
0.643405 -0.074550 0.397867 0.548448 -0.612018 0.569750 0.466003 0.363747
0.542014 -0.296416 0.017096 0.460402 -0.887112 0.031648 0.457109 0.262037
0.542014 -0.296416 -0.542014 0.334178 -0.883724 0.327586 0.480541 0.134977
0.791597 -0.074550 -0.542014 0.525956 -0.827357 0.196966 0.559560 0.157614
0.688210 -0.074550 0.008015 0.463546 -0.885433 0.032838 0.513005 0.280458
0.510859 0.296416 -0.186233 0.418836 0.905148 0.072359 0.467302 0.540699
0.701362 0.074550 -0.195315 0.412671 0.908048 0.071291 0.535399 0.520964
0.711984 -0.446736 -0.827172 0.374645 -0.829890 0.413404 0.516742 0.055886
0.358739 -0.446736 -0.827172 0.000000 -0.928312 0.371715 0.437286 0.055308
0.372383 -0.509410 -1.047917 0.000000 -0.797845 -0.602832 0.441566 0.001800
0.739063 -0.509410 -1.047917 0.341136 -0.781610 -0.522172 0.526158 0.004701
0.000000 -0.446736 -0.827172 0.000000 -0.928312 0.371715 0.354010 0.053594
0.000000 -0.509410 -1.047917 0.000000 -0.797845 -0.602832 0.354507 0.000181
0.542014 0.296416 -0.542014 0.329630 0.880490 0.340617 0.490299 0.631083
0.273098 0.296416 -0.542014 0.000000 0.970702 0.240181 0.417842 0.636852
0.273098 -0.296416 -0.542014 0.000000 -0.970702 0.240181 0.415311 0.129191
0.791597 0.074550 -0.542014 0.505600 0.837214 0.208411 0.577177 0.603916
0.000000 -0.296416 -0.542014 0.000000 -0.970702 0.240181 0.353331 0.126698
0.000000 0.296416 -0.542014 0.000000 0.970702 0.240181 0.348573 0.638372
0.791597 0.074550 -0.542014 0.505600 0.837214 0.208411 0.739195 0.224487
0.701362 0.074550 -0.195315 0.412671 0.908048 0.071291 0.722296 0.147417
1.039064 0.074550 -0.212301 0.000000 1.000000 0.000000 0.795832 0.154568
1.008793 0.074550 -0.542013 0.000000 0.880734 -0.473586 0.786628 0.225631
0.643405 -0.074550 0.397867 0.548448 -0.612018 0.569750 0.714780 0.472735
0.688210 -0.074550 0.008015 0.463546 -0.885433 0.032838 0.718600 0.385888
1.012344 -0.074550 -0.060265 0.000000 -1.000000 0.000000 0.788650 0.367885
0.955711 -0.074550 0.359286 0.114261 -0.868252 0.482711 0.781676 0.458489
0.791597 -0.074550 -0.542014 0.525956 -0.827357 0.196966 0.738678 0.264134
0.856536 0.000000 -0.591289 0.984283 0.000000 -0.176580 0.753048 0.244484
1.160125 0.000000 -0.591289 0.000000 0.000000 -1.000000 0.818630 0.245351
1.008793 -0.074550 -0.542014 0.000000 -0.880734 -0.473586 0.786096 0.264190
0.616645 0.074550 0.130181 0.456832 0.860988 0.223518 0.707484 0.074688
0.543749 0.000000 0.455627 0.614185 0.473891 0.631001 0.696035 0.000181
0.942084 0.000000 0.418637 0.178930 0.344310 0.921628 0.783251 0.013602
0.920828 0.074550 0.089342 0.022584 0.992737 0.117893 0.773770 0.087448
0.543749 0.000000 0.455627 0.614185 0.473891 0.631001 0.696035 0.496257
0.942084 0.000000 0.418637 0.178930 0.344310 0.921628 0.782092 0.479371
0.372383 0.000000 -1.047917 0.000000 0.000000 -1.000000 0.311513 0.890576
0.372383 -0.509410 -1.047917 0.000000 -0.797845 -0.602832 0.311513 0.999819
0.000000 -0.509410 -1.047917 0.000000 -0.797845 -0.602832 0.231655 0.999819
0.000000 0.000000 -1.047917 0.000000 0.000000 -1.000000 0.231655 0.890576
0.372383 0.509411 -1.047916 0.000000 0.797845 -0.602832 0.311513 0.781332
0.000000 0.509411 -1.047917 0.000000 0.797845 -0.602832 0.231655 0.781332
0.739063 -0.509410 -1.047917 0.341136 -0.781610 -0.522172 0.390148 0.999819
0.739064 0.000000 -1.047917 0.000000 0.000000 -1.000000 0.390148 0.890576
1.079383 0.000000 -1.047917 0.766900 0.000000 -0.641713 0.463130 0.890575
1.079382 -0.128118 -1.047917 0.776727 -0.305032 -0.551012 0.463130 0.918051
0.739064 0.509411 -1.047916 0.341136 0.781610 -0.522172 0.390148 0.781332
1.079383 0.128119 -1.047916 0.776727 0.305032 -0.551012 0.463130 0.863100
0.000000 0.446736 -0.827171 0.000000 0.928312 0.371715 0.347811 0.720412
0.358739 0.446736 -0.827171 0.000000 0.928312 0.371715 0.441724 0.719647
0.372383 0.509411 -1.047916 0.000000 0.797845 -0.602832 0.446323 0.780129
0.000000 0.509411 -1.047917 0.000000 0.797845 -0.602832 0.347248 0.780971
0.856536 0.000000 -0.591289 0.984283 0.000000 -0.176580 0.607193 0.604601
0.856536 0.000000 -0.591289 0.984283 0.000000 -0.176580 0.586215 0.156557
-0.273098 -0.296416 0.787441 -0.471877 -0.642567 0.603656 0.326430 0.351211
-0.229815 0.000000 0.784960 -0.600055 0.357555 0.715567 0.327441 0.379541
-1.888318 0.000000 -0.214124 -0.996887 0.051027 -0.060060 0.696035 0.664448
-1.797130 0.000000 0.108206 -0.779321 0.127110 0.613575 0.710336 0.592201
-1.537485 0.074550 0.006551 -0.104831 0.982116 0.156346 0.770115 0.611119
-1.617571 0.074550 -0.246736 -0.155370 0.987732 -0.013916 0.756960 0.666203
-1.327021 0.074550 -0.229441 0.000000 1.000000 0.000000 0.818531 0.658038
-1.227774 0.074550 0.048132 -0.036317 0.989929 0.136601 0.835913 0.596946
-1.339423 -0.074550 -0.129166 0.000000 -1.000000 0.000000 0.818275 0.847100
-1.669447 -0.074550 -0.198687 -0.193365 -0.980895 -0.019898 0.748903 0.830471
-1.521097 -0.074550 -0.542014 -0.071627 -0.886990 -0.456130 0.782711 0.761442
-1.227962 -0.074550 -0.542014 0.000000 -0.880734 -0.473586 0.843322 0.760785
-1.466472 0.000000 -0.591289 0.000000 0.000000 -1.000000 0.793512 0.742847
-1.775578 0.000000 -0.591289 -0.721519 0.019471 -0.692099 0.728400 0.744444
-1.449105 0.074550 -0.542013 -0.052797 0.886013 -0.460616 0.796692 0.724328
-1.227962 0.074550 -0.542013 0.000000 0.880734 -0.473586 0.842704 0.723212
-1.399174 0.000000 0.261302 -0.317972 0.313700 0.894681 0.797947 0.937139
-1.797130 0.000000 0.108206 -0.779321 0.127110 0.613575 0.718553 0.895451
-1.693005 -0.074550 0.077310 -0.269051 -0.909146 0.317820 0.745241 0.886828
-1.333965 -0.074550 0.240440 -0.163671 -0.873714 0.458052 0.816018 0.925188
-1.039834 0.000000 -0.827171 -0.906186 0.000000 0.422834 0.073581 0.100086
-1.079383 0.000000 -1.047917 -0.766900 0.000000 -0.641713 0.044710 0.054938
-1.079382 -0.128118 -1.047917 -0.776727 -0.305032 -0.551012 0.071568 0.038528
-1.039834 -0.112355 -0.827172 -0.836024 -0.350597 0.422010 0.093894 0.084883
-0.242662 0.296416 0.420464 -0.314524 0.899899 0.302011 0.313709 0.435873
-0.257400 0.296416 -0.045595 0.000000 1.000000 0.000000 0.294354 0.519572
-0.273098 -0.296416 0.143680 0.000000 -1.000000 0.000000 0.305544 0.269887
-1.039834 0.112356 -0.827171 -0.836024 0.350597 0.422010 0.057285 0.673896
-1.079383 0.128119 -1.047916 -0.776727 0.305032 -0.551012 0.029423 0.724723
-1.079383 0.000000 -1.047917 -0.766900 0.000000 -0.641713 0.000181 0.704658
-1.039834 0.000000 -0.827171 -0.906186 0.000000 0.422834 0.035360 0.655585
-1.399174 0.000000 0.261302 -0.317972 0.313700 0.894681 0.794209 0.550776
-1.888318 0.000000 -0.214124 -0.996887 0.051027 -0.060060 0.700036 0.825555
-0.711984 0.446736 -0.827171 -0.374645 0.829890 0.413404 0.164592 0.715388
-0.739064 0.509411 -1.047916 -0.341136 0.781610 -0.522172 0.152471 0.772758
-0.481609 0.296416 0.147789 -0.473128 0.856258 0.207221 0.258337 0.471406
-0.616645 0.074550 0.130181 -0.456832 0.860988 0.223518 0.209388 0.444861
-0.543749 0.000000 0.455627 -0.614185 0.473891 0.631001 0.261443 0.382057
-0.456111 0.000000 0.542014 -0.670949 0.408094 0.619068 0.285255 0.382465
-0.643405 -0.074550 0.397867 -0.548448 -0.612018 0.569750 0.236271 0.361611
-0.542014 -0.296416 0.542014 -0.637928 -0.637623 0.431806 0.287928 0.339607
-0.542014 -0.296416 0.017096 -0.460402 -0.887112 0.031648 0.247053 0.260084
-0.688210 -0.074550 0.008015 -0.463546 -0.885433 0.032838 0.190825 0.277463
-0.791597 -0.074550 -0.542014 -0.525956 -0.827357 0.196966 0.146562 0.153774
-0.542014 -0.296416 -0.542014 -0.334178 -0.883724 0.327586 0.225988 0.132610
-0.510859 0.296416 -0.186233 -0.418836 0.905148 0.072359 0.231681 0.538509
-0.701362 0.074550 -0.195315 -0.412671 0.908048 0.071291 0.163963 0.517511
-0.711984 -0.446736 -0.827172 -0.374645 -0.829890 0.413404 0.191264 0.052860
-0.739063 -0.509410 -1.047917 -0.341136 -0.781610 -0.522172 0.182801 0.001509
-0.372383 -0.509410 -1.047917 0.000000 -0.797845 -0.602832 0.267433 0.000181
-0.358739 -0.446736 -0.827172 0.000000 -0.928312 0.371715 0.270717 0.053760
-0.542014 0.296416 -0.542014 -0.329630 0.880490 0.340617 0.207008 0.628449
-0.273098 0.296416 -0.542014 0.000000 0.970702 0.240181 0.279345 0.635564
-0.273098 -0.296416 -0.542014 0.000000 -0.970702 0.240181 0.291315 0.128038
-0.791597 0.074550 -0.542014 -0.505600 0.837214 0.208411 0.120650 0.599672
-0.791597 0.074550 -0.542014 -0.505600 0.837214 0.208411 0.936868 0.720925
-1.008793 0.074550 -0.542013 0.000000 0.880734 -0.473586 0.889435 0.722069
-1.039064 0.074550 -0.212301 0.000000 1.000000 0.000000 0.880231 0.651006
-0.701362 0.074550 -0.195315 -0.412671 0.908048 0.071291 0.953766 0.643854
-0.643405 -0.074550 0.397867 -0.548448 -0.612018 0.569750 0.961283 0.969173
-0.955711 -0.074550 0.359286 -0.114261 -0.868252 0.482711 0.894387 0.954927
-1.012344 -0.074550 -0.060265 0.000000 -1.000000 0.000000 0.887413 0.864323
-0.688210 -0.074550 0.008015 -0.463546 -0.885433 0.032838 0.957463 0.882326
-0.791597 -0.074550 -0.542014 -0.525956 -0.827357 0.196966 0.937385 0.760572
-1.008793 -0.074550 -0.542014 0.000000 -0.880734 -0.473586 0.889967 0.760628
-1.160125 0.000000 -0.591289 0.000000 0.000000 -1.000000 0.857433 0.741789
-0.856536 0.000000 -0.591289 -0.984283 0.000000 -0.176580 0.923015 0.740922
-0.616645 0.074550 0.130181 -0.456832 0.860988 0.223518 0.968579 0.571126
-0.920828 0.074550 0.089342 -0.022584 0.992737 0.117893 0.902293 0.583886
-0.942084 0.000000 0.418637 -0.178930 0.344310 0.921628 0.892811 0.510040
-0.543749 0.000000 0.455627 -0.614185 0.473891 0.631001 0.980028 0.496619
-0.543749 0.000000 0.455627 -0.614185 0.473891 0.631001 0.980028 0.992696
-0.942084 0.000000 0.418637 -0.178930 0.344310 0.921628 0.893971 0.975809
-0.372383 0.000000 -1.047917 0.000000 0.000000 -1.000000 0.151797 0.890576
-0.372383 -0.509410 -1.047917 0.000000 -0.797845 -0.602832 0.151797 0.999819
-0.372383 0.509411 -1.047916 0.000000 0.797845 -0.602832 0.151797 0.781332
-0.739063 -0.509410 -1.047917 -0.341136 -0.781610 -0.522172 0.073163 0.999819
-1.079382 -0.128118 -1.047917 -0.776727 -0.305032 -0.551012 0.000181 0.918051
-1.079383 0.000000 -1.047917 -0.766900 0.000000 -0.641713 0.000181 0.890576
-0.739064 0.000000 -1.047917 0.000000 0.000000 -1.000000 0.073162 0.890576
-1.079383 0.128119 -1.047916 -0.776727 0.305032 -0.551012 0.000181 0.863101
-0.739064 0.509411 -1.047916 -0.341136 0.781610 -0.522172 0.073162 0.781332
-0.372383 0.509411 -1.047916 0.000000 0.797845 -0.602832 0.248205 0.778287
-0.358739 0.446736 -0.827171 0.000000 0.928312 0.371715 0.253928 0.717901
-0.856536 0.000000 -0.591289 -0.984283 0.000000 -0.176580 0.090627 0.599799
-0.856536 0.000000 -0.591289 -0.984283 0.000000 -0.176580 0.119931 0.152222
4 0 1 2 3
4 4 5 6 7
4 8 9 6 5
4 10 11 12 13
4 14 15 16 17
4 18 19 20 21
4 22 23 24 25
4 1 26 27 2
4 28 29 27 26
4 30 0 3 31
4 32 33 34 35
4 9 36 7 6
4 11 14 17 12
4 13 37 21 20
4 38 32 35 39
4 40 41 42 43
4 41 44 45 42
4 46 47 48 49
4 50 40 43 51
4 52 53 54 55
4 46 44 0 30
4 50 28 26 40
4 41 40 26 1
4 53 56 57 54
4 44 41 1 0
4 58 59 28 50
4 47 46 30 60
4 58 50 51 61
4 44 46 49 45
4 12 17 37 13
4 60 30 31 62
4 59 63 29 28
4 19 10 13 20
4 15 8 5 16
4 17 16 5 4
4 64 65 66 67
4 67 66 8 15
4 68 69 70 71
4 71 70 10 19
4 72 73 74 75
4 75 74 14 11
4 76 77 78 79
4 79 78 36 9
4 80 68 71 81
4 81 71 19 18
4 73 64 67 74
4 74 67 15 14
4 69 72 75 70
4 70 75 11 10
4 65 76 79 66
4 66 79 9 8
4 82 83 84 85
4 86 82 85 87
4 88 89 90 91
4 89 92 93 90
4 92 89 82 86
4 89 88 83 82
4 23 52 55 24
4 94 95 96 97
4 95 38 39 96
4 59 58 38 95
4 63 59 95 94
4 48 47 52 23
4 60 62 56 53
4 47 60 53 52
4 58 61 32 38
4 61 98 33 32
4 99 48 23 22
4 100 3 2 101
4 102 103 104 105
4 106 105 104 107
4 108 109 110 111
4 112 113 114 115
4 116 117 118 119
4 120 121 122 123
4 101 2 27 124
4 125 124 27 29
4 126 31 3 100
4 127 128 129 130
4 107 104 103 131
4 111 110 113 112
4 109 118 117 132
4 133 134 128 127
4 135 136 137 138
4 138 137 139 140
4 141 142 143 144
4 145 146 136 135
4 147 148 149 150
4 141 126 100 140
4 145 135 124 125
4 138 101 124 135
4 150 149 57 56
4 140 100 101 138
4 151 145 125 152
4 144 153 126 141
4 151 154 146 145
4 140 139 142 141
4 110 109 132 113
4 153 62 31 126
4 152 125 29 63
4 119 118 109 108
4 115 114 105 106
4 113 102 105 114
4 155 156 157 158
4 156 115 106 157
4 159 160 161 162
4 160 119 108 161
4 163 164 165 166
4 164 111 112 165
4 167 168 169 170
4 168 107 131 169
4 171 172 160 159
4 172 116 119 160
4 166 165 156 155
4 165 112 115 156
4 162 161 164 163
4 161 108 111 164
4 158 157 168 167
4 157 106 107 168
4 173 85 84 174
4 175 87 85 173
4 176 177 178 179
4 179 178 180 181
4 181 175 173 179
4 179 173 174 176
4 123 122 148 147
4 94 97 182 183
4 183 182 134 133
4 152 183 133 151
4 63 94 183 152
4 143 123 147 144
4 153 150 56 62
4 144 147 150 153
4 151 133 127 154
4 154 127 130 184
4 185 120 123 143
