ply
format ascii 1.0
comment Created by Blender 2.76 (sub 0) - www.blender.org, source file: 'dumbship.blend'
element vertex 550
property float x
property float y
property float z
property float nx
property float ny
property float nz
property float s
property float t
element face 280
property list uchar uint vertex_indices
end_header
0.229815 -0.000000 0.784960 0.544727 -0.000000 0.838613 0.705434 0.858729
0.000000 -0.000000 0.934238 0.544727 -0.000000 0.838613 0.658888 0.850655
0.000000 -0.296416 0.934238 0.544727 -0.000000 0.838613 0.658888 0.795110
1.617571 0.074550 -0.246736 0.246786 0.965923 0.078031 0.944512 0.364758
1.537485 0.074550 0.006551 0.246786 0.965923 0.078031 0.924035 0.316443
1.797130 -0.000000 0.108206 0.246786 0.965923 0.078031 0.975449 0.290077
1.327021 0.074550 -0.229441 0.000000 1.000000 0.000000 0.886743 0.366686
1.227774 0.074550 0.048132 0.000000 1.000000 0.000000 0.861993 0.313256
1.537485 0.074550 0.006551 0.000000 1.000000 0.000000 0.924035 0.316443
1.339423 -0.074550 -0.129166 -0.000000 -1.000000 -0.000000 0.674738 0.139056
1.227962 -0.074550 -0.542014 -0.000000 -1.000000 -0.000000 0.728717 0.072549
1.521097 -0.074550 -0.542014 -0.000000 -1.000000 -0.000000 0.761566 0.121085
1.466472 0.000000 -0.591289 0.000000 0.551410 -0.834234 0.922780 0.442291
1.227962 0.074550 -0.542013 0.000000 0.551410 -0.834234 0.873617 0.430575
1.449105 0.074550 -0.542013 0.000000 0.551410 -0.834234 0.916791 0.425288
1.399174 -0.000000 0.261302 0.352100 -0.524854 0.774954 0.615948 0.202807
1.333965 -0.074550 0.240440 0.352100 -0.524854 0.774954 0.615534 0.182543
1.693005 -0.074550 0.077310 0.352100 -0.524854 0.774954 0.682623 0.216811
1.039834 -0.112355 -0.827172 0.984327 -0.000001 0.176352 0.320970 0.491503
1.079382 -0.128118 -1.047917 0.984327 -0.000001 0.176352 0.306332 0.488547
1.079383 0.000001 -1.047917 0.984327 -0.000001 0.176352 0.307256 0.481534
0.229815 -0.000000 0.784960 0.593648 0.613967 0.520217 0.705434 0.858729
0.242662 0.296416 0.420464 0.593648 0.613967 0.520217 0.731445 0.948656
0.000000 0.296416 0.697379 0.593648 0.613967 0.520217 0.658888 0.919936
0.000000 0.296416 0.097230 -0.000000 1.000000 0.000000 0.238435 0.194554
0.000000 0.296416 0.697379 -0.000000 1.000000 0.000000 0.243033 0.000214
0.242662 0.296416 0.420464 -0.000000 1.000000 0.000000 0.322186 0.095969
0.273098 -0.296416 0.787441 -0.000000 -1.000000 -0.000000 0.301716 0.934094
0.000000 -0.296416 0.934238 -0.000000 -1.000000 -0.000000 0.219944 0.976249
0.000000 -0.296416 0.219394 -0.000000 -1.000000 -0.000000 0.224756 0.772855
1.039834 0.112356 -0.827171 0.984327 -0.000002 0.176352 0.321990 0.473105
1.039834 0.000000 -0.827171 0.984327 -0.000002 0.176352 0.322481 0.482351
1.079383 0.000001 -1.047917 0.984327 -0.000002 0.176352 0.307256 0.481534
1.399174 -0.000000 0.261302 0.132290 0.929651 0.343874 0.893131 0.265233
1.797130 -0.000000 0.108206 0.132290 0.929651 0.343874 0.975449 0.290077
1.537485 0.074550 0.006551 0.132290 0.929651 0.343874 0.924035 0.316443
1.466472 0.000000 -0.591289 0.000000 -0.551408 -0.834236 0.770959 0.102401
1.775578 0.000000 -0.591289 0.000000 -0.551408 -0.834236 0.802182 0.156107
1.521097 -0.074550 -0.542014 0.000000 -0.551408 -0.834236 0.761566 0.121085
1.888318 0.000000 -0.214124 0.544563 -0.824450 0.154057 0.753655 0.219753
1.797130 -0.000000 0.108206 0.544563 -0.824450 0.154057 0.690019 0.241930
1.693005 -0.074550 0.077310 0.544563 -0.824450 0.154057 0.682623 0.216811
0.711984 0.446736 -0.827171 0.703005 0.689275 0.175170 0.307575 0.438884
1.039834 0.112356 -0.827171 0.703005 0.689275 0.175170 0.321990 0.473105
1.079383 0.128119 -1.047916 0.703005 0.689275 0.175170 0.307120 0.474458
0.481609 0.296416 0.147789 0.525231 0.663483 0.532844 0.803331 0.973308
0.456111 -0.000000 0.542014 0.525231 0.663483 0.532844 0.767600 0.877020
0.543749 -0.000000 0.455627 0.525231 0.663483 0.532844 0.791983 0.883812
0.542014 -0.296416 0.542014 0.606779 0.219125 0.764071 0.795324 0.820367
0.643405 -0.074550 0.397867 0.606779 0.219125 0.764071 0.818381 0.874153
0.543749 -0.000000 0.455627 0.606779 0.219125 0.764071 0.791983 0.883812
0.542014 -0.296416 -0.542014 0.659268 -0.741626 0.123920 0.328675 0.574964
0.791597 -0.074550 -0.542014 0.659268 -0.741626 0.123920 0.406041 0.517025
0.688210 -0.074550 0.008015 0.659268 -0.741626 0.123920 0.440129 0.692859
0.510859 0.296416 -0.186233 0.854454 0.514110 0.074823 0.371375 0.299976
0.481609 0.296416 0.147789 0.854454 0.514110 0.074823 0.390800 0.195694
0.616645 0.074550 0.130181 0.854454 0.514110 0.074823 0.475507 0.224260
0.711984 -0.446736 -0.827172 -0.000000 -0.961978 0.273127 0.302940 0.523695
0.358739 -0.446736 -0.827172 -0.000000 -0.961978 0.273127 0.273036 0.544323
0.372383 -0.509410 -1.047917 -0.000000 -0.961978 0.273127 0.266265 0.520798
0.542014 -0.296416 0.542014 0.000000 -1.000000 -0.000000 0.379519 0.859449
0.273098 -0.296416 0.143680 0.000000 -1.000000 -0.000000 0.296919 0.751940
0.257400 0.296416 -0.045595 -0.000000 1.000000 0.000000 0.309809 0.242028
0.481609 0.296416 0.147789 -0.000000 1.000000 0.000000 0.390800 0.195694
0.456111 -0.000000 0.542014 0.583898 0.630281 0.511673 0.767600 0.877020
0.481609 0.296416 0.147789 0.583898 0.630281 0.511673 0.803331 0.973308
0.242662 0.296416 0.420464 0.583898 0.630281 0.511673 0.731445 0.948656
0.358739 -0.446736 -0.827172 0.000000 -0.961978 0.273126 0.273036 0.544323
0.000000 -0.446736 -0.827172 0.000000 -0.961978 0.273126 0.230220 0.552333
0.000000 -0.509410 -1.047917 0.000000 -0.961978 0.273126 0.230917 0.523502
0.456111 -0.000000 0.542014 0.727145 0.111847 0.677311 0.767600 0.877020
0.229815 -0.000000 0.784960 0.727145 0.111847 0.677311 0.705434 0.858729
0.273098 -0.296416 0.787441 0.727145 0.111847 0.677311 0.722576 0.802819
0.273098 0.296416 -0.542014 0.000000 1.000000 0.000000 0.286513 0.362591
0.510859 0.296416 -0.186233 0.000000 1.000000 0.000000 0.371375 0.299976
0.542014 -0.296416 0.017096 -0.000000 -1.000000 -0.000000 0.365683 0.710090
0.273098 -0.296416 -0.542014 -0.000000 -1.000000 -0.000000 0.277447 0.594250
0.542014 0.296416 -0.542014 0.758364 0.648440 0.066409 0.338225 0.388342
0.510859 0.296416 -0.186233 0.758364 0.648440 0.066409 0.371375 0.299976
0.701362 0.074550 -0.195315 0.758364 0.648440 0.066409 0.457569 0.339250
0.542014 -0.296416 0.017096 0.832978 -0.544962 0.095733 0.365683 0.710090
0.688210 -0.074550 0.008015 0.832978 -0.544962 0.095733 0.440129 0.692859
0.643405 -0.074550 0.397867 0.832978 -0.544962 0.095733 0.447789 0.810004
1.775578 0.000000 -0.591289 0.315030 -0.944398 -0.094167 0.802182 0.156107
1.888318 0.000000 -0.214124 0.315030 -0.944398 -0.094167 0.753655 0.219753
1.669447 -0.074550 -0.198687 0.315030 -0.944398 -0.094167 0.724435 0.184277
0.000000 -0.296416 -0.542014 0.000000 -1.000000 -0.000000 0.228918 0.597242
0.000000 0.296416 -0.542014 0.000000 1.000000 0.000000 0.234633 0.356033
1.669447 -0.074550 -0.198687 0.000000 -1.000000 -0.000000 0.724435 0.184277
1.693005 -0.074550 0.077310 0.000000 -1.000000 -0.000000 0.682623 0.216811
1.617571 0.074550 -0.246736 -0.000000 1.000000 0.000000 0.944512 0.364758
1.449105 0.074550 -0.542013 -0.000000 1.000000 0.000000 0.916791 0.425288
1.775578 0.000000 -0.591289 0.204343 0.971932 -0.116585 0.983901 0.431281
1.449105 0.074550 -0.542013 0.204343 0.971932 -0.116585 0.916791 0.425288
1.617571 0.074550 -0.246736 0.204343 0.971932 -0.116585 0.944512 0.364758
0.791597 0.074550 -0.542014 0.000000 1.000000 0.000000 0.786552 0.439992
0.701362 0.074550 -0.195315 0.000000 1.000000 0.000000 0.761196 0.372218
1.039064 0.074550 -0.212301 0.000000 1.000000 0.000000 0.829198 0.368872
1.227962 0.074550 -0.542013 0.000000 1.000000 0.000000 0.873617 0.430575
0.688210 -0.074550 0.008015 0.000000 -1.000000 -0.000000 0.572566 0.050916
1.012344 -0.074550 -0.060266 0.000000 -1.000000 -0.000000 0.624191 0.094939
0.955711 -0.074550 0.359286 0.000000 -1.000000 -0.000000 0.550763 0.138188
1.333965 -0.074550 0.240440 -0.000000 -1.000000 -0.000000 0.615534 0.182543
0.856536 0.000000 -0.591289 -0.000000 -0.551408 -0.834236 0.699205 0.000214
1.160125 0.000000 -0.591289 -0.000000 -0.551408 -0.834236 0.735705 0.050787
1.008793 -0.074550 -0.542014 -0.000000 -0.551408 -0.834236 0.702696 0.036293
1.227962 -0.074550 -0.542014 0.000000 -0.551408 -0.834236 0.728717 0.072549
0.616645 0.074550 0.130181 0.021148 0.973494 0.227734 0.737789 0.308315
0.543749 -0.000000 0.455627 0.021148 0.973494 0.227734 0.717013 0.242359
0.942084 -0.000000 0.418637 0.021148 0.973494 0.227734 0.797962 0.242359
0.942084 -0.000000 0.418637 0.090560 0.960511 0.263094 0.797962 0.242359
1.399174 -0.000000 0.261302 0.090560 0.960511 0.263094 0.893131 0.265233
1.227774 0.074550 0.048132 0.090560 0.960511 0.263094 0.861993 0.313256
0.643405 -0.074550 0.397867 0.097250 -0.608956 0.787220 0.504004 0.094521
0.955711 -0.074550 0.359286 0.097250 -0.608956 0.787220 0.550763 0.138188
0.942084 -0.000000 0.418637 0.097250 -0.608956 0.787220 0.534957 0.149674
0.942084 -0.000000 0.418637 0.245018 -0.576056 0.779824 0.534957 0.149674
0.955711 -0.074550 0.359286 0.245018 -0.576056 0.779824 0.550763 0.138188
1.333965 -0.074550 0.240440 0.245018 -0.576056 0.779824 0.615534 0.182543
0.856536 0.000000 -0.591289 0.000000 0.551409 -0.834235 0.801510 0.456514
0.791597 0.074550 -0.542014 0.000000 0.551409 -0.834235 0.786552 0.439992
1.008793 0.074550 -0.542013 0.000000 0.551409 -0.834235 0.830046 0.435336
1.160125 0.000000 -0.591289 0.000000 0.551410 -0.834234 0.862238 0.449861
1.008793 0.074550 -0.542013 0.000000 0.551410 -0.834234 0.830046 0.435336
0.791597 -0.074550 -0.542014 0.000000 -1.000000 -0.000000 0.676439 0.000214
1.008793 -0.074550 -0.542014 0.000000 -1.000000 -0.000000 0.702696 0.036293
0.616645 0.074550 0.130181 0.000000 1.000000 0.000000 0.737789 0.308315
0.920828 0.074550 0.089342 0.000000 1.000000 0.000000 0.799740 0.310716
0.372383 -0.509410 -1.047917 0.000000 0.000000 -1.000000 0.266265 0.520798
0.000000 -0.509410 -1.047917 0.000000 0.000000 -1.000000 0.230917 0.523502
0.000000 0.000001 -1.047917 0.000000 0.000000 -1.000000 0.232153 0.479371
0.372383 0.000001 -1.047917 0.000000 0.000000 -1.000000 0.262005 0.479886
0.000000 0.509411 -1.047917 0.000000 0.000000 -1.000000 0.233073 0.433611
0.739064 0.000001 -1.047917 0.000000 0.000001 -1.000000 0.287482 0.480476
1.079383 0.000001 -1.047917 0.000000 0.000001 -1.000000 0.307256 0.481534
1.079382 -0.128118 -1.047917 0.000000 0.000001 -1.000000 0.306332 0.488547
0.739064 0.000001 -1.047917 0.000000 0.000000 -1.000000 0.287482 0.480476
0.739064 0.509411 -1.047916 0.000000 0.000000 -1.000000 0.293864 0.452524
1.079383 0.128119 -1.047916 0.000000 0.000000 -1.000000 0.307120 0.474458
0.372383 0.509411 -1.047916 0.000000 0.000000 -1.000000 0.268668 0.439031
0.739063 -0.509410 -1.047917 0.000000 0.000000 -1.000000 0.290265 0.509318
0.711984 -0.446736 -0.827172 0.718315 -0.641127 0.270147 0.302940 0.523695
0.739063 -0.509410 -1.047917 0.718315 -0.641127 0.270147 0.290265 0.509318
1.079382 -0.128118 -1.047917 0.718315 -0.641127 0.270147 0.306332 0.488547
0.358739 0.446736 -0.827171 -0.000000 0.961978 0.273128 0.277739 0.414946
0.372383 0.509411 -1.047916 -0.000000 0.961978 0.273128 0.268668 0.439031
0.000000 0.509411 -1.047917 -0.000000 0.961978 0.273128 0.233073 0.433611
0.711984 0.446736 -0.827171 -0.000000 0.961978 0.273127 0.307575 0.438884
0.739064 0.509411 -1.047916 -0.000000 0.961978 0.273127 0.293864 0.452524
0.372383 0.509411 -1.047916 -0.000000 0.961978 0.273127 0.268668 0.439031
0.542014 0.296416 -0.542014 -0.000000 0.884615 0.466321 0.338225 0.388342
0.711984 0.446736 -0.827171 -0.000000 0.884615 0.466321 0.307575 0.438884
0.358739 0.446736 -0.827171 -0.000000 0.884615 0.466321 0.277739 0.414946
0.273098 0.296416 -0.542014 -0.000000 0.884615 0.466321 0.286513 0.362591
0.000000 0.446736 -0.827171 -0.000000 0.884615 0.466321 0.233757 0.403754
0.791597 -0.074550 -0.542014 0.521336 -0.586463 0.619896 0.406041 0.517025
0.542014 -0.296416 -0.542014 0.521336 -0.586463 0.619896 0.328675 0.574964
0.711984 -0.446736 -0.827172 0.521336 -0.586463 0.619896 0.302940 0.523695
0.273098 -0.296416 -0.542014 -0.000000 -0.884616 0.466320 0.277447 0.594250
0.000000 -0.296416 -0.542014 -0.000000 -0.884616 0.466320 0.228918 0.597242
0.000000 -0.446736 -0.827172 -0.000000 -0.884616 0.466320 0.230220 0.552333
0.542014 -0.296416 -0.542014 -0.000000 -0.884616 0.466320 0.328675 0.574964
0.358739 -0.446736 -0.827172 -0.000000 -0.884616 0.466320 0.273036 0.544323
0.791597 0.074550 -0.542014 0.581008 0.569660 0.581307 0.410308 0.456753
1.039834 0.112356 -0.827171 0.581008 0.569660 0.581307 0.321990 0.473105
0.711984 0.446736 -0.827171 0.581008 0.569660 0.581307 0.307575 0.438884
0.856536 0.000000 -0.591289 0.789622 -0.000002 0.613594 0.390971 0.486149
1.039834 0.000000 -0.827171 0.789622 -0.000002 0.613594 0.322481 0.482351
1.039834 0.112356 -0.827171 0.789622 -0.000002 0.613594 0.321990 0.473105
0.856536 0.000000 -0.591289 0.726283 -0.197455 0.658425 0.390971 0.486149
0.791597 -0.074550 -0.542014 0.726283 -0.197455 0.658425 0.406041 0.517025
1.039834 -0.112355 -0.827172 0.726283 -0.197455 0.658425 0.320970 0.491503
0.000000 -0.296416 0.934238 -0.544727 -0.000000 0.838613 0.658888 0.795110
0.000000 -0.000000 0.934238 -0.544727 -0.000000 0.838613 0.658888 0.850655
-0.229815 -0.000000 0.784960 -0.544727 -0.000000 0.838613 0.612342 0.858729
-1.797130 -0.000000 0.108206 -0.246786 0.965923 0.078031 0.475936 0.451180
-1.537485 0.074550 0.006551 -0.246786 0.965923 0.078031 0.531746 0.436220
-1.617571 0.074550 -0.246736 -0.246786 0.965923 0.078031 0.548991 0.485781
-1.327021 0.074550 -0.229441 0.000000 1.000000 0.000000 0.593111 0.448439
-1.617571 0.074550 -0.246736 0.000000 1.000000 0.000000 0.548991 0.485781
-1.537485 0.074550 0.006551 0.000000 1.000000 0.000000 0.531746 0.436220
-1.339423 -0.074550 -0.129166 -0.000000 -1.000000 -0.000000 0.590670 0.692508
-1.669447 -0.074550 -0.198687 -0.000000 -1.000000 -0.000000 0.558623 0.751565
-1.521097 -0.074550 -0.542014 -0.000000 -1.000000 -0.000000 0.502764 0.704112
-1.466472 0.000000 -0.591289 -0.000000 0.551410 -0.834234 0.617137 0.528673
-1.775578 0.000000 -0.591289 -0.000000 0.551410 -0.834234 0.564437 0.561531
-1.449105 0.074550 -0.542013 -0.000000 0.551410 -0.834234 0.610166 0.512049
-1.399174 -0.000000 0.261302 -0.268437 -0.664119 0.697773 0.667165 0.733361
-1.797130 -0.000000 0.108206 -0.268437 -0.664119 0.697773 0.610095 0.794681
-1.693005 -0.074550 0.077310 -0.268437 -0.664119 0.697773 0.608812 0.768527
-1.079383 0.000001 -1.047917 -0.984327 -0.000001 0.176352 0.156138 0.477971
-1.079382 -0.128118 -1.047917 -0.984327 -0.000001 0.176352 0.156728 0.485020
-1.039834 -0.112355 -0.827172 -0.984327 -0.000001 0.176352 0.141969 0.487279
-0.229815 -0.000000 0.784960 -0.452519 0.556681 0.696658 0.612342 0.858729
0.000000 -0.000000 0.934238 -0.452519 0.556681 0.696658 0.658888 0.850655
0.000000 0.296416 0.697379 -0.452519 0.556681 0.696658 0.658888 0.919936
-0.242662 0.296416 0.420464 0.000000 1.000000 0.000000 0.159440 0.092118
-0.273098 -0.296416 0.787441 0.000000 -1.000000 -0.000000 0.140256 0.930275
-1.039834 0.112356 -0.827171 -0.984327 -0.000002 0.176352 0.141820 0.468855
-1.079383 0.128119 -1.047916 -0.984327 -0.000002 0.176352 0.156609 0.470910
-1.079383 0.000001 -1.047917 -0.984327 -0.000002 0.176352 0.156138 0.477971
-1.537485 0.074550 0.006551 -0.132290 0.929651 0.343874 0.531746 0.436220
-1.797130 -0.000000 0.108206 -0.132290 0.929651 0.343874 0.475936 0.451180
-1.399174 -0.000000 0.261302 -0.132290 0.929651 0.343874 0.520287 0.377516
-1.521097 -0.074550 -0.542014 -0.000000 -0.551408 -0.834236 0.502764 0.704112
-1.775578 0.000000 -0.591289 -0.000000 -0.551408 -0.834236 0.475936 0.750550
-1.466472 0.000000 -0.591289 -0.000000 -0.551408 -0.834236 0.487745 0.689561
-1.693005 -0.074550 0.077310 -0.544563 -0.824450 0.154057 0.608812 0.768527
-1.797130 -0.000000 0.108206 -0.544563 -0.824450 0.154057 0.610095 0.794681
-1.888318 0.000000 -0.214124 -0.544563 -0.824450 0.154057 0.542705 0.794681
-0.711984 0.446736 -0.827171 -0.718315 0.641127 0.270148 0.157831 0.435359
-0.739064 0.509411 -1.047916 -0.718315 0.641127 0.270148 0.170882 0.449628
-1.079383 0.128119 -1.047916 -0.718315 0.641127 0.270148 0.156609 0.470910
-0.481609 0.296416 0.147789 -0.826434 0.479585 0.294967 0.514444 0.973308
-0.616645 0.074550 0.130181 -0.826434 0.479585 0.294967 0.475936 0.934908
-0.543749 -0.000000 0.455627 -0.826434 0.479585 0.294967 0.525792 0.883812
-0.543749 -0.000000 0.455627 -0.606779 0.219125 0.764071 0.525792 0.883812
-0.643405 -0.074550 0.397867 -0.606779 0.219125 0.764071 0.499395 0.874153
-0.542014 -0.296416 0.542014 -0.606779 0.219125 0.764071 0.522452 0.820367
0.000000 0.000001 -1.047917 1.000000 0.000000 0.000000 0.864939 0.664014
0.000000 0.509411 -1.047917 1.000000 0.000000 0.000000 0.864939 0.766069
0.000000 0.446736 -0.827171 1.000000 0.000000 0.000000 0.820715 0.753513
-0.688210 -0.074550 0.008015 -0.659268 -0.741626 0.123920 0.013407 0.682762
-0.791597 -0.074550 -0.542014 -0.659268 -0.741626 0.123920 0.055785 0.508747
-0.542014 -0.296416 -0.542014 -0.659268 -0.741626 0.123920 0.130308 0.570276
-0.510859 0.296416 -0.186233 -0.748101 0.634376 0.194709 0.100657 0.293576
-0.701362 0.074550 -0.195315 -0.748101 0.634376 0.194709 0.012700 0.328738
-0.616645 0.074550 0.130181 -0.748101 0.634376 0.194709 0.000215 0.213019
-0.711984 -0.446736 -0.827172 0.000000 -0.961978 0.273126 0.158447 0.520278
-0.739063 -0.509410 -1.047917 0.000000 -0.961978 0.273126 0.171788 0.506523
-0.372383 -0.509410 -1.047917 0.000000 -0.961978 0.273126 0.195204 0.519122
-0.273098 -0.296416 0.143680 -0.000000 -1.000000 -0.000000 0.153663 0.748552
-0.542014 -0.296416 0.542014 -0.000000 -1.000000 -0.000000 0.066070 0.852034
-0.481609 0.296416 0.147789 0.000000 1.000000 0.000000 0.086184 0.188487
-0.257400 0.296416 -0.045595 0.000000 1.000000 0.000000 0.164898 0.238600
-0.456111 -0.000000 0.542014 -0.569604 0.627735 0.530566 0.550176 0.877020
-0.229815 -0.000000 0.784960 -0.569604 0.627735 0.530566 0.612342 0.858729
-0.242662 0.296416 0.420464 -0.569604 0.627735 0.530566 0.586331 0.948655
-0.358739 -0.446736 -0.827172 0.000000 -0.961978 0.273127 0.187319 0.542288
-0.372383 -0.509410 -1.047917 0.000000 -0.961978 0.273127 0.195204 0.519122
0.000000 -0.509410 -1.047917 0.000000 -0.961978 0.273127 0.230337 0.523492
-0.273098 -0.296416 0.787441 -0.727145 0.111847 0.677311 0.595199 0.802819
-0.229815 -0.000000 0.784960 -0.727145 0.111847 0.677311 0.612342 0.858729
-0.456111 -0.000000 0.542014 -0.727145 0.111847 0.677311 0.550176 0.877020
-0.510859 0.296416 -0.186233 -0.000000 1.000000 0.000000 0.100657 0.293576
-0.273098 0.296416 -0.542014 -0.000000 1.000000 0.000000 0.182466 0.360125
-0.273098 -0.296416 -0.542014 0.000000 -1.000000 -0.000000 0.180561 0.591968
-0.542014 -0.296416 0.017096 0.000000 -1.000000 -0.000000 0.086954 0.703496
-0.542014 0.296416 -0.542014 -0.654673 0.736457 0.170392 0.129594 0.383414
-0.791597 0.074550 -0.542014 -0.654673 0.736457 0.170392 0.054371 0.448344
-0.701362 0.074550 -0.195315 -0.654673 0.736457 0.170392 0.012700 0.328738
-0.643405 -0.074550 0.397867 -0.832978 -0.544962 0.095733 0.000214 0.799414
-0.688210 -0.074550 0.008015 -0.832978 -0.544962 0.095733 0.013407 0.682762
-0.542014 -0.296416 0.017096 -0.832978 -0.544962 0.095733 0.086954 0.703496
-1.669447 -0.074550 -0.198687 -0.315030 -0.944398 -0.094167 0.558623 0.751565
-1.888318 0.000000 -0.214124 -0.315030 -0.944398 -0.094167 0.542705 0.794681
-1.775578 0.000000 -0.591289 -0.315030 -0.944398 -0.094167 0.475936 0.750550
-1.693005 -0.074550 0.077310 -0.000000 -1.000000 -0.000000 0.608812 0.768527
-1.449105 0.074550 -0.542013 0.000000 1.000000 0.000000 0.610166 0.512049
-1.775578 0.000000 -0.591289 -0.273727 0.958321 -0.081821 0.564437 0.561531
-1.888318 0.000000 -0.214124 -0.273727 0.958321 -0.081821 0.500297 0.514352
-1.617571 0.074550 -0.246736 -0.273727 0.958321 -0.081821 0.548991 0.485781
-0.791597 0.074550 -0.542014 0.000000 1.000000 0.000000 0.716584 0.435541
-1.008793 0.074550 -0.542013 0.000000 1.000000 0.000000 0.681217 0.461280
-1.039064 0.074550 -0.212301 0.000000 1.000000 0.000000 0.637239 0.411439
-1.227962 0.074550 -0.542013 -0.000000 1.000000 0.000000 0.645720 0.486993
-0.955711 -0.074550 0.359286 -0.000000 -1.000000 -0.000000 0.707454 0.650890
-1.012344 -0.074550 -0.060266 -0.000000 -1.000000 -0.000000 0.623883 0.634214
-0.688210 -0.074550 0.008015 -0.000000 -1.000000 -0.000000 0.658145 0.575654
-1.333965 -0.074550 0.240440 0.000000 -1.000000 -0.000000 0.660888 0.714090
-1.008793 -0.074550 -0.542014 -0.000000 -0.551408 -0.834236 0.530451 0.604670
-1.160125 0.000000 -0.591289 -0.000000 -0.551408 -0.834236 0.504050 0.629219
-0.856536 0.000000 -0.591289 -0.000000 -0.551408 -0.834236 0.521875 0.569452
-1.227962 -0.074550 -0.542014 -0.000000 -0.551408 -0.834236 0.517811 0.647470
-0.616645 0.074550 0.130181 -0.029389 0.975304 0.218903 0.664360 0.305198
-0.920828 0.074550 0.089342 -0.029389 0.975304 0.218903 0.620045 0.348555
-0.942084 -0.000000 0.418637 -0.029389 0.975304 0.218903 0.575487 0.296687
-1.227774 0.074550 0.048132 -0.090560 0.960511 0.263094 0.575600 0.392219
-1.399174 -0.000000 0.261302 -0.090560 0.960511 0.263094 0.520287 0.377516
-0.942084 -0.000000 0.418637 -0.090560 0.960511 0.263094 0.575487 0.296687
-0.942084 -0.000000 0.418637 -0.097250 -0.608956 0.787220 0.726159 0.656535
-0.955711 -0.074550 0.359286 -0.097250 -0.608956 0.787220 0.707454 0.650890
-0.643405 -0.074550 0.397867 -0.097250 -0.608956 0.787220 0.737238 0.594267
-0.942084 -0.000000 0.418637 -0.285265 -0.481448 0.828753 0.726159 0.656535
-1.399174 -0.000000 0.261302 -0.285265 -0.481448 0.828753 0.667165 0.733361
-1.333965 -0.074550 0.240440 -0.285265 -0.481448 0.828753 0.660888 0.714090
-0.856536 0.000000 -0.591289 0.000000 0.551410 -0.834235 0.716584 0.457828
-1.160125 0.000000 -0.591289 0.000000 0.551410 -0.834235 0.667100 0.493652
-1.008793 0.074550 -0.542013 0.000000 0.551410 -0.834235 0.681217 0.461280
-1.160125 0.000000 -0.591289 -0.000000 0.551410 -0.834234 0.667100 0.493652
-1.227962 0.074550 -0.542013 -0.000000 0.551410 -0.834234 0.645720 0.486993
-1.008793 -0.074550 -0.542014 -0.000000 -1.000000 -0.000000 0.530451 0.604670
-0.791597 -0.074550 -0.542014 -0.000000 -1.000000 -0.000000 0.543372 0.561960
-1.227962 -0.074550 -0.542014 0.000000 -1.000000 -0.000000 0.517811 0.647470
-0.701362 0.074550 -0.195315 -0.000000 1.000000 0.000000 0.689896 0.368280
-0.920828 0.074550 0.089342 -0.000000 1.000000 0.000000 0.620045 0.348555
-1.227774 0.074550 0.048132 -0.000000 1.000000 0.000000 0.575600 0.392219
0.000000 0.000001 -1.047917 -0.000000 0.000000 -1.000000 0.231373 0.479352
0.000000 -0.509410 -1.047917 -0.000000 0.000000 -1.000000 0.230337 0.523492
-0.372383 -0.509410 -1.047917 -0.000000 0.000000 -1.000000 0.195204 0.519122
0.000000 0.509411 -1.047917 -0.000000 0.000000 -1.000000 0.232472 0.433593
-0.372383 0.000001 -1.047917 -0.000000 0.000000 -1.000000 0.201438 0.478476
-1.079382 -0.128118 -1.047917 0.000000 0.000001 -1.000000 0.156728 0.485020
-1.079383 0.000001 -1.047917 0.000000 0.000001 -1.000000 0.156138 0.477971
-0.739064 0.000001 -1.047917 0.000000 0.000001 -1.000000 0.175942 0.477853
-1.079383 0.128119 -1.047916 0.000000 0.000001 -1.000000 0.156609 0.470910
-0.372383 0.509411 -1.047916 0.000000 0.000000 -1.000000 0.196681 0.437338
-0.739064 0.000001 -1.047917 0.000000 0.000000 -1.000000 0.175942 0.477853
-0.739063 -0.509410 -1.047917 0.000000 0.000000 -1.000000 0.171788 0.506523
-1.079382 -0.128118 -1.047917 -0.718315 -0.641127 0.270147 0.156728 0.485020
-0.739063 -0.509410 -1.047917 -0.718315 -0.641127 0.270147 0.171788 0.506523
-0.711984 -0.446736 -0.827172 -0.718315 -0.641127 0.270147 0.158447 0.520278
0.000000 -0.446736 -0.827172 1.000000 0.000000 -0.000000 0.820715 0.574516
0.000000 -0.509410 -1.047917 1.000000 0.000000 -0.000000 0.864939 0.561960
0.000000 0.509411 -1.047917 0.000000 0.961978 0.273128 0.232472 0.433593
-0.372383 0.509411 -1.047916 0.000000 0.961978 0.273128 0.196681 0.437338
-0.358739 0.446736 -0.827171 0.000000 0.961978 0.273128 0.188748 0.412861
-0.372383 0.509411 -1.047916 -0.000000 0.961978 0.273127 0.196681 0.437338
-0.739064 0.509411 -1.047916 -0.000000 0.961978 0.273127 0.170882 0.449628
-0.711984 0.446736 -0.827171 -0.000000 0.961978 0.273127 0.157831 0.435359
-0.358739 0.446736 -0.827171 0.000000 0.884615 0.466321 0.188748 0.412861
-0.711984 0.446736 -0.827171 0.000000 0.884615 0.466321 0.157831 0.435359
-0.542014 0.296416 -0.542014 0.000000 0.884615 0.466321 0.129594 0.383414
0.000000 0.446736 -0.827171 -0.000000 0.884615 0.466321 0.233151 0.403738
-0.273098 0.296416 -0.542014 -0.000000 0.884615 0.466321 0.182466 0.360125
0.000000 -0.296416 -0.542014 1.000000 0.000000 -0.000000 0.763587 0.604631
0.000000 0.000000 -0.827172 1.000000 0.000000 -0.000000 0.820715 0.664014
-0.791597 -0.074550 -0.542014 -0.581008 -0.569661 0.581306 0.055785 0.508747
-1.039834 -0.112355 -0.827172 -0.581008 -0.569661 0.581306 0.141969 0.487279
-0.711984 -0.446736 -0.827172 -0.581008 -0.569661 0.581306 0.158447 0.520278
-0.273098 -0.296416 -0.542014 0.000000 -0.884616 0.466320 0.180561 0.591968
-0.358739 -0.446736 -0.827172 0.000000 -0.884616 0.466320 0.187319 0.542288
0.000000 -0.446736 -0.827172 0.000000 -0.884616 0.466320 0.229636 0.552321
-0.542014 -0.296416 -0.542014 0.000000 -0.884616 0.466320 0.130308 0.570276
-0.711984 -0.446736 -0.827172 0.000000 -0.884616 0.466320 0.158447 0.520278
0.000000 0.296416 -0.542014 1.000000 0.000000 0.000000 0.763587 0.723398
-0.711984 0.446736 -0.827171 -0.581008 0.569660 0.581307 0.157831 0.435359
-1.039834 0.112356 -0.827171 -0.581008 0.569660 0.581307 0.141820 0.468855
-0.791597 0.074550 -0.542014 -0.581008 0.569660 0.581307 0.054371 0.448344
-1.039834 0.112356 -0.827171 -0.789622 -0.000002 0.613594 0.141820 0.468855
-1.039834 0.000000 -0.827171 -0.789622 -0.000002 0.613594 0.140892 0.478067
-0.856536 0.000000 -0.591289 -0.789622 -0.000002 0.613594 0.072298 0.478620
-0.856536 0.000000 -0.591289 -0.789622 -0.000001 0.613594 0.072298 0.478620
-1.039834 0.000000 -0.827171 -0.789622 -0.000001 0.613594 0.140892 0.478067
-1.039834 -0.112355 -0.827172 -0.789622 -0.000001 0.613594 0.141969 0.487279
0.273098 -0.296416 0.787441 0.472081 0.076284 0.878248 0.722576 0.802819
0.229815 -0.000000 0.784960 0.472081 0.076284 0.878248 0.705434 0.858729
0.000000 -0.296416 0.934238 0.472081 0.076284 0.878248 0.658888 0.795110
1.888318 0.000000 -0.214124 0.256630 0.963779 0.072601 0.999786 0.353258
1.617571 0.074550 -0.246736 0.256630 0.963779 0.072601 0.944512 0.364758
1.797130 -0.000000 0.108206 0.256630 0.963779 0.072601 0.975449 0.290077
1.775578 0.000000 -0.591289 0.000000 0.551410 -0.834234 0.983901 0.431281
1.797130 -0.000000 0.108206 0.268437 -0.664119 0.697773 0.690019 0.241930
1.399174 -0.000000 0.261302 0.268437 -0.664119 0.697773 0.615948 0.202807
1.693005 -0.074550 0.077310 0.268437 -0.664119 0.697773 0.682623 0.216811
1.039834 0.000000 -0.827171 0.984327 -0.000001 0.176352 0.322481 0.482351
0.000000 -0.000000 0.934238 0.452519 0.556681 0.696658 0.658888 0.850655
0.229815 -0.000000 0.784960 0.452519 0.556681 0.696658 0.705434 0.858729
0.000000 0.296416 0.697379 0.452519 0.556681 0.696658 0.658888 0.919936
1.079383 0.128119 -1.047916 0.984327 -0.000002 0.176352 0.307120 0.474458
1.227774 0.074550 0.048132 0.040379 0.952845 0.300761 0.861993 0.313256
1.399174 -0.000000 0.261302 0.040379 0.952845 0.300761 0.893131 0.265233
1.537485 0.074550 0.006551 0.040379 0.952845 0.300761 0.924035 0.316443
1.669447 -0.074550 -0.198687 0.320570 -0.946829 -0.027363 0.724435 0.184277
1.888318 0.000000 -0.214124 0.320570 -0.946829 -0.027363 0.753655 0.219753
1.693005 -0.074550 0.077310 0.320570 -0.946829 -0.027363 0.682623 0.216811
0.739064 0.509411 -1.047916 0.718315 0.641127 0.270148 0.293864 0.452524
0.711984 0.446736 -0.827171 0.718315 0.641127 0.270148 0.307575 0.438884
1.079383 0.128119 -1.047916 0.718315 0.641127 0.270148 0.307120 0.474458
0.616645 0.074550 0.130181 0.826434 0.479584 0.294967 0.841840 0.934908
0.481609 0.296416 0.147789 0.826434 0.479584 0.294967 0.803331 0.973308
0.543749 -0.000000 0.455627 0.826434 0.479584 0.294967 0.791983 0.883812
0.456111 -0.000000 0.542014 0.687909 0.199360 0.697880 0.767600 0.877020
0.542014 -0.296416 0.542014 0.687909 0.199360 0.697880 0.795324 0.820367
0.543749 -0.000000 0.455627 0.687909 0.199360 0.697880 0.791983 0.883812
0.542014 -0.296416 0.017096 0.835017 -0.550224 -0.000000 0.365683 0.710090
0.542014 -0.296416 -0.542014 0.835017 -0.550224 -0.000000 0.328675 0.574964
0.688210 -0.074550 0.008015 0.835017 -0.550224 -0.000000 0.440129 0.692859
0.701362 0.074550 -0.195315 0.748101 0.634376 0.194709 0.457569 0.339250
0.510859 0.296416 -0.186233 0.748101 0.634376 0.194709 0.371375 0.299976
0.616645 0.074550 0.130181 0.748101 0.634376 0.194709 0.475507 0.224260
0.739063 -0.509410 -1.047917 0.000000 -0.961978 0.273126 0.290265 0.509318
0.711984 -0.446736 -0.827172 0.000000 -0.961978 0.273126 0.302940 0.523695
0.372383 -0.509410 -1.047917 0.000000 -0.961978 0.273126 0.266265 0.520798
0.229815 -0.000000 0.784960 0.569604 0.627735 0.530566 0.705434 0.858729
0.456111 -0.000000 0.542014 0.569604 0.627735 0.530566 0.767600 0.877020
0.242662 0.296416 0.420464 0.569604 0.627735 0.530566 0.731445 0.948656
0.000000 -0.509410 -1.047917 -0.000000 -0.961978 0.273127 0.230917 0.523502
0.542014 -0.296416 0.542014 0.661605 0.191737 0.724925 0.795324 0.820367
0.456111 -0.000000 0.542014 0.661605 0.191737 0.724925 0.767600 0.877020
0.273098 -0.296416 0.787441 0.661605 0.191737 0.724925 0.722576 0.802819
0.542014 0.296416 -0.542014 -0.000000 1.000000 0.000000 0.338225 0.388342
0.542014 -0.296416 -0.542014 0.000000 -1.000000 -0.000000 0.328675 0.574964
0.791597 0.074550 -0.542014 0.654673 0.736457 0.170392 0.410308 0.456753
0.542014 0.296416 -0.542014 0.654673 0.736457 0.170392 0.338225 0.388342
0.701362 0.074550 -0.195315 0.654673 0.736457 0.170392 0.457569 0.339250
0.542014 -0.296416 0.542014 0.909527 -0.415646 -0.000000 0.379519 0.859449
0.542014 -0.296416 0.017096 0.909527 -0.415646 -0.000000 0.365683 0.710090
0.643405 -0.074550 0.397867 0.909527 -0.415646 -0.000000 0.447789 0.810004
1.521097 -0.074550 -0.542014 0.259320 -0.959269 -0.112051 0.761566 0.121085
1.775578 0.000000 -0.591289 0.259320 -0.959269 -0.112051 0.802182 0.156107
1.669447 -0.074550 -0.198687 0.259320 -0.959269 -0.112051 0.724435 0.184277
1.888318 0.000000 -0.214124 0.273727 0.958321 -0.081821 0.999786 0.353258
1.775578 0.000000 -0.591289 0.273727 0.958321 -0.081821 0.983901 0.431281
1.617571 0.074550 -0.246736 0.273727 0.958321 -0.081821 0.944512 0.364758
1.008793 0.074550 -0.542013 -0.000000 1.000000 0.000000 0.830046 0.435336
0.643405 -0.074550 0.397867 -0.000000 -1.000000 -0.000000 0.504004 0.094521
0.791597 -0.074550 -0.542014 0.000000 -0.551407 -0.834236 0.676439 0.000214
0.856536 0.000000 -0.591289 0.000000 -0.551407 -0.834236 0.699205 0.000214
1.008793 -0.074550 -0.542014 0.000000 -0.551407 -0.834236 0.702696 0.036293
0.920828 0.074550 0.089342 0.029389 0.975304 0.218903 0.799740 0.310716
0.616645 0.074550 0.130181 0.029389 0.975304 0.218903 0.737789 0.308315
0.942084 -0.000000 0.418637 0.029389 0.975304 0.218903 0.797962 0.242359
0.920828 0.074550 0.089342 0.029389 0.975304 0.218904 0.799740 0.310716
0.942084 -0.000000 0.418637 0.029389 0.975304 0.218904 0.797962 0.242359
1.227774 0.074550 0.048132 0.029389 0.975304 0.218904 0.861993 0.313256
0.543749 -0.000000 0.455627 0.077601 -0.543731 0.835664 0.475936 0.092745
0.643405 -0.074550 0.397867 0.077601 -0.543731 0.835664 0.504004 0.094521
0.942084 -0.000000 0.418637 0.077601 -0.543731 0.835664 0.534957 0.149674
1.399174 -0.000000 0.261302 0.285265 -0.481448 0.828753 0.615948 0.202807
0.942084 -0.000000 0.418637 0.285265 -0.481448 0.828753 0.534957 0.149674
1.333965 -0.074550 0.240440 0.285265 -0.481448 0.828753 0.615534 0.182543
1.160125 0.000000 -0.591289 0.000000 0.551410 -0.834235 0.862238 0.449861
0.856536 0.000000 -0.591289 0.000000 0.551410 -0.834235 0.801510 0.456514
1.008793 0.074550 -0.542013 0.000000 0.551410 -0.834235 0.830046 0.435336
1.079382 -0.128118 -1.047917 -0.000000 0.000000 -1.000000 0.306332 0.488547
1.079383 0.128119 -1.047916 0.000000 0.000001 -1.000000 0.307120 0.474458
1.039834 -0.112355 -0.827172 0.703005 -0.689275 0.175169 0.320970 0.491503
0.711984 -0.446736 -0.827172 0.703005 -0.689275 0.175169 0.302940 0.523695
1.079382 -0.128118 -1.047917 0.703005 -0.689275 0.175169 0.306332 0.488547
0.000000 0.446736 -0.827171 0.000000 0.961978 0.273127 0.233757 0.403754
0.358739 0.446736 -0.827171 0.000000 0.961978 0.273127 0.277739 0.414946
0.000000 0.509411 -1.047917 0.000000 0.961978 0.273127 0.233073 0.433611
0.711984 0.446736 -0.827171 -0.000000 0.961978 0.273128 0.307575 0.438884
0.000000 0.296416 -0.542014 -0.000000 0.884615 0.466321 0.234633 0.356033
1.039834 -0.112355 -0.827172 0.581008 -0.569661 0.581306 0.320970 0.491503
0.791597 -0.074550 -0.542014 0.581008 -0.569661 0.581306 0.406041 0.517025
0.711984 -0.446736 -0.827172 0.581008 -0.569661 0.581306 0.302940 0.523695
0.711984 -0.446736 -0.827172 -0.000000 -0.884616 0.466320 0.302940 0.523695
0.542014 0.296416 -0.542014 0.521335 0.586462 0.619897 0.338225 0.388342
0.791597 0.074550 -0.542014 0.521335 0.586462 0.619897 0.410308 0.456753
0.711984 0.446736 -0.827171 0.521335 0.586462 0.619897 0.307575 0.438884
0.791597 0.074550 -0.542014 0.726284 0.197451 0.658426 0.410308 0.456753
0.856536 0.000000 -0.591289 0.726284 0.197451 0.658426 0.390971 0.486149
1.039834 0.112356 -0.827171 0.726284 0.197451 0.658426 0.321990 0.473105
1.039834 0.000000 -0.827171 0.789622 -0.000001 0.613594 0.322481 0.482351
0.856536 0.000000 -0.591289 0.789622 -0.000001 0.613594 0.390971 0.486149
1.039834 -0.112355 -0.827172 0.789622 -0.000001 0.613594 0.320970 0.491503
-0.273098 -0.296416 0.787441 -0.472081 0.076284 0.878248 0.595199 0.802819
0.000000 -0.296416 0.934238 -0.472081 0.076284 0.878248 0.658888 0.795110
-0.229815 -0.000000 0.784960 -0.472081 0.076284 0.878248 0.612342 0.858729
-1.888318 0.000000 -0.214124 -0.256630 0.963779 0.072601 0.500297 0.514352
-1.797130 -0.000000 0.108206 -0.256630 0.963779 0.072601 0.475936 0.451180
-1.617571 0.074550 -0.246736 -0.256630 0.963779 0.072601 0.548991 0.485781
-1.333965 -0.074550 0.240440 -0.352100 -0.524854 0.774954 0.660888 0.714090
-1.399174 -0.000000 0.261302 -0.352100 -0.524854 0.774954 0.667165 0.733361
-1.693005 -0.074550 0.077310 -0.352100 -0.524854 0.774954 0.608812 0.768527
-1.039834 0.000000 -0.827171 -0.984327 -0.000001 0.176352 0.140892 0.478067
-0.242662 0.296416 0.420464 -0.593648 0.613967 0.520217 0.586331 0.948655
-0.229815 -0.000000 0.784960 -0.593648 0.613967 0.520217 0.612342 0.858729
0.000000 0.296416 0.697379 -0.593648 0.613967 0.520217 0.658888 0.919936
-1.039834 0.000000 -0.827171 -0.984327 -0.000002 0.176352 0.140892 0.478067
-1.227774 0.074550 0.048132 -0.040379 0.952845 0.300761 0.575600 0.392219
-1.537485 0.074550 0.006551 -0.040379 0.952845 0.300761 0.531746 0.436220
-1.399174 -0.000000 0.261302 -0.040379 0.952845 0.300761 0.520287 0.377516
-1.669447 -0.074550 -0.198687 -0.320570 -0.946829 -0.027363 0.558623 0.751565
-1.693005 -0.074550 0.077310 -0.320570 -0.946829 -0.027363 0.608812 0.768527
-1.888318 0.000000 -0.214124 -0.320570 -0.946829 -0.027363 0.542705 0.794681
-1.039834 0.112356 -0.827171 -0.703005 0.689275 0.175170 0.141820 0.468855
-0.711984 0.446736 -0.827171 -0.703005 0.689275 0.175170 0.157831 0.435359
-1.079383 0.128119 -1.047916 -0.703005 0.689275 0.175170 0.156609 0.470910
-0.456111 -0.000000 0.542014 -0.525231 0.663483 0.532844 0.550176 0.877020
-0.481609 0.296416 0.147789 -0.525231 0.663483 0.532844 0.514444 0.973308
-0.543749 -0.000000 0.455627 -0.525231 0.663483 0.532844 0.525792 0.883812
-0.456111 -0.000000 0.542014 -0.687909 0.199360 0.697880 0.550176 0.877020
-0.543749 -0.000000 0.455627 -0.687909 0.199360 0.697880 0.525792 0.883812
-0.542014 -0.296416 0.542014 -0.687909 0.199360 0.697880 0.522452 0.820367
-0.542014 -0.296416 0.017096 -0.835017 -0.550224 -0.000000 0.086954 0.703496
-0.688210 -0.074550 0.008015 -0.835017 -0.550224 -0.000000 0.013407 0.682762
-0.542014 -0.296416 -0.542014 -0.835017 -0.550224 -0.000000 0.130308 0.570276
-0.481609 0.296416 0.147789 -0.854454 0.514110 0.074823 0.086184 0.188487
-0.510859 0.296416 -0.186233 -0.854454 0.514110 0.074823 0.100657 0.293576
-0.616645 0.074550 0.130181 -0.854454 0.514110 0.074823 0.000215 0.213019
-0.358739 -0.446736 -0.827172 0.000000 -0.961978 0.273126 0.187319 0.542288
-0.481609 0.296416 0.147789 -0.583898 0.630281 0.511673 0.514444 0.973308
-0.456111 -0.000000 0.542014 -0.583898 0.630281 0.511673 0.550176 0.877020
-0.242662 0.296416 0.420464 -0.583898 0.630281 0.511673 0.586331 0.948655
0.000000 -0.446736 -0.827172 0.000000 -0.961978 0.273126 0.229636 0.552321
0.000000 -0.509410 -1.047917 0.000000 -0.961978 0.273126 0.230337 0.523492
-0.542014 -0.296416 0.542014 -0.661605 0.191737 0.724925 0.522452 0.820367
-0.273098 -0.296416 0.787441 -0.661605 0.191737 0.724925 0.595199 0.802819
-0.456111 -0.000000 0.542014 -0.661605 0.191737 0.724925 0.550176 0.877020
-0.542014 0.296416 -0.542014 0.000000 1.000000 0.000000 0.129594 0.383414
-0.542014 -0.296416 -0.542014 -0.000000 -1.000000 -0.000000 0.130308 0.570276
-0.510859 0.296416 -0.186233 -0.758364 0.648440 0.066409 0.100657 0.293576
-0.542014 0.296416 -0.542014 -0.758364 0.648440 0.066409 0.129594 0.383414
-0.701362 0.074550 -0.195315 -0.758364 0.648440 0.066409 0.012700 0.328738
-0.542014 -0.296416 0.542014 -0.909527 -0.415646 -0.000000 0.066070 0.852034
-0.643405 -0.074550 0.397867 -0.909527 -0.415646 -0.000000 0.000214 0.799414
-0.542014 -0.296416 0.017096 -0.909527 -0.415646 -0.000000 0.086954 0.703496
-1.521097 -0.074550 -0.542014 -0.259320 -0.959269 -0.112051 0.502764 0.704112
-1.669447 -0.074550 -0.198687 -0.259320 -0.959269 -0.112051 0.558623 0.751565
-1.775578 0.000000 -0.591289 -0.259320 -0.959269 -0.112051 0.475936 0.750550
-1.449105 0.074550 -0.542013 -0.204343 0.971932 -0.116585 0.610166 0.512049
-1.775578 0.000000 -0.591289 -0.204343 0.971932 -0.116585 0.564437 0.561531
-1.617571 0.074550 -0.246736 -0.204343 0.971932 -0.116585 0.548991 0.485781
-0.643405 -0.074550 0.397867 0.000000 -1.000000 -0.000000 0.737238 0.594267
-0.791597 -0.074550 -0.542014 -0.000000 -0.551407 -0.834236 0.543372 0.561960
-1.008793 -0.074550 -0.542014 -0.000000 -0.551407 -0.834236 0.530451 0.604670
-0.856536 0.000000 -0.591289 -0.000000 -0.551407 -0.834236 0.521875 0.569452
-0.543749 -0.000000 0.455627 -0.021148 0.973494 0.227734 0.635497 0.242359
-0.616645 0.074550 0.130181 -0.021148 0.973494 0.227734 0.664360 0.305198
-0.942084 -0.000000 0.418637 -0.021148 0.973494 0.227734 0.575487 0.296687
-0.920828 0.074550 0.089342 -0.029389 0.975304 0.218904 0.620045 0.348555
-1.227774 0.074550 0.048132 -0.029389 0.975304 0.218904 0.575600 0.392219
-0.942084 -0.000000 0.418637 -0.029389 0.975304 0.218904 0.575487 0.296687
-0.543749 -0.000000 0.455627 -0.077601 -0.543731 0.835664 0.763158 0.583354
-0.942084 -0.000000 0.418637 -0.077601 -0.543731 0.835664 0.726159 0.656535
-0.643405 -0.074550 0.397867 -0.077601 -0.543731 0.835664 0.737238 0.594267
-0.955711 -0.074550 0.359286 -0.245018 -0.576056 0.779824 0.707454 0.650890
-0.942084 -0.000000 0.418637 -0.245018 -0.576056 0.779824 0.726159 0.656535
-1.333965 -0.074550 0.240440 -0.245018 -0.576056 0.779824 0.660888 0.714090
-0.791597 0.074550 -0.542014 -0.000000 0.551409 -0.834235 0.716584 0.435541
-0.856536 0.000000 -0.591289 -0.000000 0.551409 -0.834235 0.716584 0.457828
-1.008793 0.074550 -0.542013 -0.000000 0.551409 -0.834235 0.681217 0.461280
-1.008793 0.074550 -0.542013 -0.000000 0.551410 -0.834234 0.681217 0.461280
-0.616645 0.074550 0.130181 -0.000000 1.000000 0.000000 0.664360 0.305198
-1.079382 -0.128118 -1.047917 0.000000 0.000000 -1.000000 0.156728 0.485020
-0.739064 0.509411 -1.047916 -0.000000 0.000000 -1.000000 0.170882 0.449628
-1.079383 0.128119 -1.047916 -0.000000 0.000000 -1.000000 0.156609 0.470910
-1.039834 -0.112355 -0.827172 -0.703005 -0.689275 0.175169 0.141969 0.487279
-1.079382 -0.128118 -1.047917 -0.703005 -0.689275 0.175169 0.156728 0.485020
-0.711984 -0.446736 -0.827172 -0.703005 -0.689275 0.175169 0.158447 0.520278
0.000000 0.446736 -0.827171 0.000000 0.961978 0.273127 0.233151 0.403738
0.000000 0.509411 -1.047917 0.000000 0.961978 0.273127 0.232472 0.433593
-0.358739 0.446736 -0.827171 0.000000 0.961978 0.273127 0.188748 0.412861
-0.711984 0.446736 -0.827171 0.000000 0.961978 0.273128 0.157831 0.435359
0.000000 0.000000 -0.542014 1.000000 0.000000 -0.000000 0.763587 0.664014
-0.542014 -0.296416 -0.542014 -0.521336 -0.586463 0.619896 0.130308 0.570276
-0.791597 -0.074550 -0.542014 -0.521336 -0.586463 0.619896 0.055785 0.508747
-0.711984 -0.446736 -0.827172 -0.521336 -0.586463 0.619896 0.158447 0.520278
-0.542014 0.296416 -0.542014 -0.521335 0.586462 0.619897 0.129594 0.383414
-0.711984 0.446736 -0.827171 -0.521335 0.586462 0.619897 0.157831 0.435359
-0.791597 0.074550 -0.542014 -0.521335 0.586462 0.619897 0.054371 0.448344
-0.791597 0.074550 -0.542014 -0.726284 0.197451 0.658426 0.054371 0.448344
-1.039834 0.112356 -0.827171 -0.726284 0.197451 0.658426 0.141820 0.468855
-0.856536 0.000000 -0.591289 -0.726284 0.197451 0.658426 0.072298 0.478620
-0.791597 -0.074550 -0.542014 -0.726283 -0.197455 0.658425 0.055785 0.508747
-0.856536 0.000000 -0.591289 -0.726283 -0.197455 0.658425 0.072298 0.478620
-1.039834 -0.112355 -0.827172 -0.726283 -0.197455 0.658425 0.141969 0.487279
3 0 1 2
3 3 4 5
3 6 7 8
3 9 10 11
3 12 13 14
3 15 16 17
3 18 19 20
3 21 22 23
3 24 25 26
3 27 28 29
3 30 31 32
3 33 34 35
3 36 37 38
3 39 40 41
3 42 43 44
3 45 46 47
3 48 49 50
3 51 52 53
3 54 55 56
3 57 58 59
3 60 27 61
3 62 26 63
3 64 65 66
3 67 68 69
3 70 71 72
3 73 62 74
3 75 61 76
3 77 78 79
3 80 81 82
3 83 84 85
3 61 29 86
3 87 24 62
3 9 88 89
3 6 90 91
3 92 93 94
3 95 96 97
3 97 6 98
3 99 100 101
3 100 9 102
3 103 104 105
3 104 36 106
3 107 108 109
3 110 111 112
3 113 114 115
3 116 117 118
3 119 120 121
3 122 123 13
3 124 125 100
3 100 125 10
3 96 126 127
3 97 127 7
3 128 129 130
3 131 130 132
3 133 134 135
3 136 137 138
3 136 131 139
3 140 128 131
3 141 142 143
3 144 145 146
3 147 148 149
3 150 151 152
3 153 152 154
3 155 156 157
3 158 159 160
3 161 158 162
3 163 164 165
3 166 167 168
3 169 170 171
3 172 173 174
3 175 176 177
3 178 179 180
3 181 182 183
3 184 185 186
3 187 188 189
3 190 191 192
3 193 194 195
3 196 25 24
3 29 28 197
3 198 199 200
3 201 202 203
3 204 205 206
3 207 208 209
3 210 211 212
3 213 214 215
3 216 217 218
3 219 220 221
3 222 223 224
3 225 226 227
3 228 229 230
3 231 197 232
3 233 196 234
3 235 236 237
3 238 239 240
3 241 242 243
3 244 234 245
3 246 231 247
3 248 249 250
3 251 252 253
3 254 255 256
3 86 29 231
3 234 24 87
3 257 182 181
3 258 179 178
3 259 260 261
3 262 263 264
3 265 178 264
3 266 267 268
3 269 181 267
3 270 271 272
3 273 206 271
3 274 275 276
3 277 278 279
3 280 281 282
3 283 284 285
3 286 287 288
3 289 184 290
3 267 291 292
3 267 181 293
3 294 264 295
3 264 178 296
3 297 298 299
3 300 297 301
3 302 303 304
3 304 303 305
3 306 301 307
3 301 299 308
3 309 310 311
3 312 313 219
3 314 315 316
3 317 318 319
3 320 321 322
3 323 320 324
3 325 312 326
3 327 328 329
3 330 331 332
3 333 334 331
3 326 221 335
3 336 337 338
3 339 340 341
3 342 343 344
3 345 346 347
3 348 349 350
3 90 6 8
3 88 9 11
3 351 12 14
3 352 353 354
3 355 18 20
3 356 357 358
3 62 24 26
3 61 27 29
3 359 30 32
3 360 361 362
3 106 36 38
3 363 364 365
3 366 367 368
3 369 370 371
3 372 373 374
3 375 376 377
3 378 379 380
3 381 382 383
3 75 60 61
3 74 62 63
3 384 385 386
3 59 58 387
3 388 389 390
3 391 73 74
3 392 75 76
3 393 394 395
3 396 397 398
3 399 400 401
3 76 61 86
3 73 87 62
3 102 9 89
3 98 6 91
3 402 403 404
3 405 95 97
3 405 97 98
3 406 99 101
3 101 100 102
3 407 408 409
3 105 104 106
3 410 411 412
3 413 414 415
3 416 417 418
3 419 420 421
3 422 423 424
3 12 122 13
3 99 124 100
3 9 100 10
3 97 96 127
3 6 97 7
3 131 128 130
3 139 131 132
3 140 136 425
3 134 133 426
3 137 136 139
3 136 140 131
3 427 428 429
3 430 431 432
3 144 433 145
3 153 150 152
3 434 153 154
3 435 436 437
3 162 158 160
3 438 161 162
3 439 440 441
3 442 443 444
3 445 446 447
3 448 449 450
3 451 452 453
3 296 178 180
3 293 181 183
3 290 184 186
3 454 455 456
3 457 190 192
3 458 459 460
3 234 196 24
3 231 29 197
3 461 198 200
3 462 463 464
3 273 204 206
3 465 466 467
3 468 469 470
3 471 472 473
3 474 475 476
3 326 219 221
3 477 478 479
3 480 481 482
3 483 228 230
3 247 231 232
3 244 233 234
3 484 485 486
3 487 483 488
3 489 490 491
3 492 244 245
3 493 246 247
3 494 495 496
3 497 498 499
3 500 501 502
3 246 86 231
3 245 234 87
3 269 257 181
3 265 258 178
3 503 504 505
3 294 262 264
3 263 265 264
3 506 266 268
3 266 269 267
3 507 508 509
3 270 273 271
3 510 511 512
3 513 514 515
3 516 517 518
3 519 520 521
3 522 523 524
3 525 289 290
3 268 267 292
3 291 267 293
3 526 294 295
3 295 264 296
3 301 297 299
3 306 300 301
3 308 527 307
3 528 307 529
3 528 306 307
3 307 301 308
3 530 531 532
3 326 312 219
3 533 534 535
3 316 315 536
3 324 320 322
3 434 323 324
3 537 325 326
3 538 539 540
3 159 330 332
3 330 333 331
3 537 326 335
3 541 542 543
3 544 545 546
3 547 548 549
