ply
format ascii 1.0
comment Created by Blender 2.76 (sub 0) - www.blender.org, source file: 'legobrick.blend'
element vertex 40
property float x
property float y
property float z
property float nx
property float ny
property float nz
property float s
property float t
element face 10
property list uchar uint vertex_indices
end_header
1.000000 -1.000000 -1.000000 0.000000 -1.000000 0.000000 0.500000 0.000000
1.000000 -1.000000 1.000000 0.000000 -1.000000 0.000000 1.000000 0.000000
-1.000000 -1.000000 1.000000 0.000000 -1.000000 0.000000 1.000000 0.500000
-1.000000 -1.000000 -1.000000 0.000000 -1.000000 0.000000 0.500000 0.500000
-1.000000 1.000000 1.000000 -0.000000 0.897356 0.441307 0.500000 0.500000
0.999999 1.000000 1.000001 -0.000000 0.897356 0.441307 0.500000 1.000000
0.580997 1.206059 0.580998 -0.000000 0.897356 0.441307 0.395249 0.895249
-0.580998 1.206059 0.580998 -0.000000 0.897356 0.441307 0.395249 0.604751
1.000000 -1.000000 -1.000000 1.000000 0.000000 0.000000 0.500000 0.000000
1.000000 1.000000 -0.999999 1.000000 0.000000 0.000000 0.500000 0.500000
0.999999 1.000000 1.000001 1.000000 0.000000 0.000000 0.000000 0.500000
1.000000 -1.000000 1.000000 1.000000 0.000000 0.000000 0.000000 0.000000
1.000000 -1.000000 1.000000 -0.000000 -0.000000 1.000000 0.500000 -0.000000
0.999999 1.000000 1.000001 -0.000000 -0.000000 1.000000 0.500000 0.499999
-1.000000 1.000000 1.000000 -0.000000 -0.000000 1.000000 0.000000 0.500001
-1.000000 -1.000000 1.000000 -0.000000 -0.000000 1.000000 -0.000000 0.000000
-1.000000 -1.000000 1.000000 -1.000000 -0.000000 -0.000000 0.500000 -0.000000
-1.000000 1.000000 1.000000 -1.000000 -0.000000 -0.000000 0.500000 0.500000
-1.000000 1.000000 -1.000000 -1.000000 -0.000000 -0.000000 -0.000000 0.500000
-1.000000 -1.000000 -1.000000 -1.000000 -0.000000 -0.000000 -0.000000 0.000000
1.000000 1.000000 -0.999999 0.000000 0.000000 -1.000000 -0.000000 0.500000
1.000000 -1.000000 -1.000000 0.000000 0.000000 -1.000000 -0.000000 -0.000000
-1.000000 -1.000000 -1.000000 0.000000 0.000000 -1.000000 0.500000 -0.000000
-1.000000 1.000000 -1.000000 0.000000 0.000000 -1.000000 0.500000 0.500000
0.580998 1.206059 -0.580997 0.000000 1.000000 0.000000 0.104751 0.895249
-0.580998 1.206059 -0.580998 0.000000 1.000000 0.000000 0.104751 0.604751
-0.580998 1.206059 0.580998 0.000000 1.000000 0.000000 0.395249 0.604751
0.580997 1.206059 0.580998 0.000000 1.000000 0.000000 0.395249 0.895249
0.999999 1.000000 1.000001 0.441307 0.897356 0.000000 0.500000 1.000000
1.000000 1.000000 -0.999999 0.441307 0.897356 0.000000 0.000000 1.000000
0.580998 1.206059 -0.580997 0.441307 0.897356 0.000000 0.104751 0.895249
0.580997 1.206059 0.580998 0.441307 0.897356 0.000000 0.395249 0.895249
-1.000000 1.000000 -1.000000 -0.441307 0.897356 -0.000000 0.000000 0.500000
-1.000000 1.000000 1.000000 -0.441307 0.897356 -0.000000 0.500000 0.500000
-0.580998 1.206059 0.580998 -0.441307 0.897356 -0.000000 0.395249 0.604751
-0.580998 1.206059 -0.580998 -0.441307 0.897356 -0.000000 0.104751 0.604751
1.000000 1.000000 -0.999999 0.000000 0.897356 -0.441307 0.000000 1.000000
-1.000000 1.000000 -1.000000 0.000000 0.897356 -0.441307 0.000000 0.500000
-0.580998 1.206059 -0.580998 0.000000 0.897356 -0.441307 0.104751 0.604751
0.580998 1.206059 -0.580997 0.000000 0.897356 -0.441307 0.104751 0.895249
4 0 1 2 3
4 4 5 6 7
4 8 9 10 11
4 12 13 14 15
4 16 17 18 19
4 20 21 22 23
4 24 25 26 27
4 28 29 30 31
4 32 33 34 35
4 36 37 38 39
