ply
format ascii 1.0
comment Created by Blender 2.76 (sub 0) - www.blender.org, source file: 'ship1 v2 exporty.blend'
element vertex 649
property float x
property float y
property float z
property float nx
property float ny
property float nz
element face 404
property list uchar uint vertex_indices
end_header
0.000000 -1.066369 -0.146692 0.000000 -0.995544 0.094272
0.000000 -1.015645 0.385165 0.000000 -0.995544 0.094272
-0.834733 -0.700037 0.423543 -0.645100 -0.757347 0.101077
-0.860165 -0.741395 -0.117470 -0.633259 -0.767296 0.100772
-1.299800 0.111065 0.435050 -0.994293 0.011048 0.106021
-1.360089 0.081178 -0.096062 -0.994232 0.010346 0.106479
-0.799193 0.892759 0.287212 -0.661153 0.745628 0.082919
-0.869243 0.887699 -0.336550 -0.673025 0.734764 0.084231
-0.367413 1.168520 -0.508244 -0.346782 0.932554 0.100192
-0.306848 1.101161 0.238144 -0.318430 0.942839 0.098086
0.000000 1.160316 0.221106 0.000000 0.993225 0.116153
0.000000 1.264804 -0.610485 0.000000 0.993133 0.116947
-0.306848 1.101161 0.238144 0.034089 0.197699 0.979644
-0.799193 0.892759 0.287212 -0.096164 0.321757 0.941893
-0.771127 0.782296 0.328731 -0.160558 0.324778 0.932035
-0.320356 1.014553 0.263170 0.003479 0.252876 0.967467
-1.299800 0.111065 0.435050 -0.196204 0.135594 0.971129
-0.834733 -0.700037 0.423543 -0.051180 -0.069185 0.996277
-0.742263 -0.604411 0.421848 -0.042268 -0.063356 0.997070
-1.181903 0.091945 0.476322 -0.185522 0.082247 0.979186
0.000000 1.067744 0.221106 0.000000 0.133183 0.991089
0.000000 1.160316 0.221106 0.000000 0.133183 0.991089
-0.160178 1.041149 0.242138 0.069338 0.132847 0.988678
0.000000 -1.015645 0.385165 0.000000 -0.004975 0.999969
0.000000 -0.887426 0.383659 0.000000 -0.004975 0.999969
-1.159870 0.115708 0.947472 -0.996521 0.026429 0.078768
-0.742754 -0.596107 0.966759 -0.647145 -0.760979 0.045930
-0.702657 -0.598064 1.542641 -0.636921 -0.769036 0.053591
-1.067200 0.104676 1.521774 -0.993561 0.018220 0.111728
0.160178 1.041149 0.242138 0.089599 0.281560 -0.955351
0.000000 1.067744 0.221106 0.089599 0.281560 -0.955351
0.000000 1.202837 0.274768 0.089599 0.281560 -0.955351
0.147652 1.202837 0.274768 0.089599 0.281560 -0.955351
-0.724063 0.783558 0.882476 -0.710349 0.702170 0.047884
-0.682868 0.780569 1.537779 -0.714194 0.694174 0.089297
0.000000 -0.859638 0.896019 0.000000 -0.999725 0.022340
0.000000 -0.860919 1.547962 0.000000 -0.999939 0.009217
-0.424268 1.014567 0.882569 -0.541765 0.840114 0.025666
-0.290257 1.014496 1.526394 -0.554949 0.828303 0.076785
-0.320356 1.014553 0.263170 -0.526688 0.849605 -0.026429
-0.771127 0.782296 0.328731 -0.693960 0.719932 0.006745
-0.742263 -0.604411 0.421848 -0.622120 -0.782128 0.035096
0.000000 -0.887426 0.383659 0.000000 -0.999420 0.033937
-1.181903 0.091945 0.476322 -0.998840 0.013550 0.046175
-0.320356 1.014553 0.263170 -0.983473 0.120749 -0.134910
-0.424268 1.014567 0.882569 -0.983473 0.120749 -0.134910
-0.396276 1.095471 0.889043 -0.983473 0.120749 -0.134910
-0.325604 1.136644 0.272584 -0.983473 0.120749 -0.134910
-1.067200 0.104676 1.521774 -0.008057 0.002930 0.999939
-0.702657 -0.598064 1.542641 -0.012909 0.008606 0.999878
-0.611656 -0.460139 1.544236 -0.013703 0.011414 0.999817
-0.917860 0.128941 1.520269 -0.005341 -0.003540 0.999969
0.000000 0.934376 1.651789 0.000000 -0.014954 0.999878
0.000000 1.067744 1.651717 0.000000 -0.014954 0.999878
-0.186071 1.041120 1.589055 -0.376629 -0.013825 0.926237
-0.290257 1.014496 1.526394 -0.266732 -0.013306 0.963652
-0.324100 0.889549 1.525262 -0.102451 -0.012238 0.994659
-0.682868 0.780569 1.537779 0.026856 -0.017151 0.999481
-0.647434 0.693787 1.536505 0.017792 -0.022034 0.999573
0.000000 -0.860919 1.547962 0.000000 -0.004761 0.999969
0.000000 -0.678138 1.548734 0.000000 -0.004761 0.999969
-0.533524 0.088021 2.772109 -0.955351 -0.000671 0.295389
-0.350080 -0.277782 2.778101 -0.656453 -0.714774 0.241127
-0.262888 -0.216997 3.189389 -0.650319 -0.696158 0.303995
-0.405412 0.074381 3.189389 -0.934416 0.009186 0.355998
0.000000 0.598432 2.823708 0.000000 0.961791 0.273751
-0.181245 0.570454 2.772181 -0.394513 0.876400 0.276131
-0.133626 0.464089 3.187820 -0.398816 0.841304 0.364879
0.000000 0.486450 3.214348 0.000000 0.918516 0.395337
-0.348970 0.447765 2.785178 -0.726463 0.624134 0.287515
-0.249481 0.365758 3.201403 -0.712485 0.597980 0.367077
0.000000 -0.422801 2.753669 0.000000 -0.976165 0.216956
0.000000 -0.337689 3.155314 0.000000 -0.960387 0.278634
0.860165 -0.741395 -0.117470 0.633259 -0.767296 0.100772
0.834733 -0.700037 0.423543 0.645100 -0.757347 0.101077
1.360089 0.081178 -0.096062 0.994232 0.010346 0.106479
1.299800 0.111065 0.435050 0.994293 0.011048 0.106021
0.869243 0.887699 -0.336550 0.673025 0.734764 0.084231
0.799193 0.892759 0.287212 0.661153 0.745628 0.082919
0.306848 1.101161 0.238144 0.318430 0.942839 0.098086
0.367413 1.168520 -0.508244 0.346782 0.932554 0.100192
0.306848 1.101161 0.238144 -0.034089 0.197699 0.979644
0.320356 1.014553 0.263170 -0.003479 0.252876 0.967467
0.771127 0.782296 0.328731 0.160558 0.324778 0.932035
0.799193 0.892759 0.287212 0.096164 0.321757 0.941893
1.299800 0.111065 0.435050 0.196204 0.135594 0.971129
1.181903 0.091945 0.476322 0.185522 0.082247 0.979186
0.742263 -0.604411 0.421848 0.042268 -0.063356 0.997070
0.834733 -0.700037 0.423543 0.051180 -0.069185 0.996277
0.160178 1.041149 0.242138 -0.069338 0.132847 0.988678
1.159870 0.115708 0.947472 0.996521 0.026429 0.078768
1.067200 0.104676 1.521774 0.993561 0.018220 0.111728
0.702657 -0.598064 1.542641 0.636921 -0.769036 0.053591
0.742754 -0.596107 0.966759 0.647145 -0.760979 0.045930
-0.186071 1.041120 1.589055 -0.226187 0.190656 0.955243
0.000000 1.067744 1.651717 -0.226187 0.190656 0.955243
0.000000 1.115205 1.618327 -0.226187 0.190656 0.955243
-0.101006 1.115205 1.618327 -0.226187 0.190656 0.955243
0.724063 0.783558 0.882476 0.710349 0.702170 0.047884
0.682868 0.780569 1.537779 0.714194 0.694174 0.089297
0.424268 1.014567 0.882569 0.541765 0.840114 0.025666
0.290257 1.014496 1.526394 0.554949 0.828303 0.076785
0.320356 1.014553 0.263170 0.526688 0.849605 -0.026429
0.771127 0.782296 0.328731 0.693960 0.719932 0.006745
0.742263 -0.604411 0.421848 0.622120 -0.782128 0.035096
1.181903 0.091945 0.476322 0.998840 0.013550 0.046175
-0.160178 1.041149 0.242138 -0.095558 0.148281 -0.984318
-0.320356 1.014553 0.263170 -0.095558 0.148281 -0.984318
-0.325604 1.136644 0.272584 -0.095558 0.148281 -0.984318
-0.147652 1.202837 0.274768 -0.095558 0.148281 -0.984318
1.067200 0.104676 1.521774 0.008057 0.002930 0.999939
0.917860 0.128941 1.520269 0.005341 -0.003540 0.999969
0.611656 -0.460139 1.544236 0.013703 0.011414 0.999817
0.702657 -0.598064 1.542641 0.012909 0.008606 0.999878
0.186071 1.041120 1.589055 0.376629 -0.013825 0.926237
0.324100 0.889549 1.525262 0.102451 -0.012238 0.994659
0.290257 1.014496 1.526394 0.266732 -0.013306 0.963652
0.682868 0.780569 1.537779 -0.026856 -0.017151 0.999481
0.647434 0.693787 1.536505 -0.017792 -0.022034 0.999573
0.533524 0.088021 2.772109 0.955351 -0.000671 0.295389
0.405412 0.074381 3.189389 0.934416 0.009186 0.355998
0.262888 -0.216997 3.189389 0.650319 -0.696158 0.303995
0.350080 -0.277782 2.778101 0.656453 -0.714774 0.241127
0.133626 0.464089 3.187820 0.398816 0.841304 0.364879
0.181245 0.570454 2.772181 0.394513 0.876400 0.276131
0.348970 0.447765 2.785178 0.726463 0.624134 0.287515
0.249481 0.365758 3.201403 0.712485 0.597980 0.367077
-0.252300 1.357209 0.938042 -0.739497 0.610839 0.282877
-0.396276 1.095471 0.889043 -0.739497 0.610839 0.282877
-0.279189 1.051897 1.527033 -0.739497 0.610839 0.282877
-0.101006 1.115205 1.618327 -0.739497 0.610839 0.282877
-0.147652 1.202837 0.274768 -0.692369 0.704223 -0.157145
-0.325604 1.136644 0.272584 -0.692369 0.704223 -0.157145
-0.396276 1.095471 0.889043 -0.692369 0.704223 -0.157145
-0.252300 1.357209 0.938042 -0.692369 0.704223 -0.157145
0.252300 1.357209 0.938042 0.739497 0.610839 0.282877
0.101006 1.115205 1.618327 0.739497 0.610839 0.282877
0.279189 1.051897 1.527033 0.739497 0.610839 0.282877
0.396276 1.095471 0.889043 0.739497 0.610839 0.282877
0.147652 1.202837 0.274768 0.692369 0.704223 -0.157145
0.252300 1.357209 0.938042 0.692369 0.704223 -0.157145
0.396276 1.095471 0.889043 0.692369 0.704223 -0.157145
0.325604 1.136644 0.272584 0.692369 0.704223 -0.157145
-0.424268 1.014567 0.882569 -0.935077 0.297103 0.193290
-0.290257 1.014496 1.526394 -0.935077 0.297103 0.193290
-0.279189 1.051897 1.527033 -0.935077 0.297103 0.193290
-0.396276 1.095471 0.889043 -0.935077 0.297103 0.193290
0.186071 1.041120 1.589055 0.521162 0.228787 0.822221
0.290257 1.014496 1.526394 0.521162 0.228787 0.822221
0.279189 1.051897 1.527033 0.521162 0.228787 0.822221
0.101006 1.115205 1.618327 0.521162 0.228787 0.822221
0.424268 1.014567 0.882569 0.983473 0.120749 -0.134910
0.320356 1.014553 0.263170 0.983473 0.120749 -0.134910
0.325604 1.136644 0.272584 0.983473 0.120749 -0.134910
0.396276 1.095471 0.889043 0.983473 0.120749 -0.134910
0.290257 1.014496 1.526394 0.935077 0.297103 0.193290
0.424268 1.014567 0.882569 0.935077 0.297103 0.193290
0.396276 1.095471 0.889043 0.935077 0.297103 0.193290
0.279189 1.051897 1.527033 0.935077 0.297103 0.193290
0.000000 1.067744 1.651717 0.226187 0.190656 0.955243
0.186071 1.041120 1.589055 0.226187 0.190656 0.955243
0.101006 1.115205 1.618327 0.226187 0.190656 0.955243
0.000000 1.115205 1.618327 0.226187 0.190656 0.955243
0.000000 1.202837 0.274768 0.000000 0.973968 -0.226685
0.000000 1.357209 0.938042 0.000000 0.973968 -0.226685
0.252300 1.357209 0.938042 0.000000 0.973968 -0.226685
0.147652 1.202837 0.274768 0.000000 0.973968 -0.226685
0.000000 1.357209 0.938042 0.000000 0.942160 0.335164
0.000000 1.115205 1.618327 0.000000 0.942160 0.335164
0.101006 1.115205 1.618327 0.000000 0.942160 0.335164
0.252300 1.357209 0.938042 0.000000 0.942160 0.335164
-0.147652 1.202837 0.274768 0.000000 0.973968 -0.226685
-0.252300 1.357209 0.938042 0.000000 0.973968 -0.226685
-0.252300 1.357209 0.938042 0.000000 0.942160 0.335164
-0.101006 1.115205 1.618327 0.000000 0.942160 0.335164
0.000000 1.067744 0.221106 -0.089599 0.281560 -0.955351
-0.160178 1.041149 0.242138 -0.089599 0.281560 -0.955351
-0.147652 1.202837 0.274768 -0.089599 0.281560 -0.955351
0.000000 1.202837 0.274768 -0.089599 0.281560 -0.955351
-0.290257 1.014496 1.526394 -0.521162 0.228787 0.822221
-0.186071 1.041120 1.589055 -0.521162 0.228787 0.822221
-0.101006 1.115205 1.618327 -0.521162 0.228787 0.822221
-0.279189 1.051897 1.527033 -0.521162 0.228787 0.822221
0.320356 1.014553 0.263170 0.095558 0.148281 -0.984318
0.160178 1.041149 0.242138 0.095558 0.148281 -0.984318
0.147652 1.202837 0.274768 0.095558 0.148281 -0.984318
0.325604 1.136644 0.272584 0.095558 0.148281 -0.984318
-0.731725 0.124262 -1.689270 0.990308 0.000000 0.138888
-0.978768 0.124262 0.072206 0.990308 0.000000 0.138888
-0.978768 -0.124262 0.072206 0.990308 0.000000 0.138888
-0.731725 -0.124262 -1.689270 0.990308 0.000000 0.138888
-0.978768 0.124262 0.072206 -0.329387 0.000000 0.944195
-3.868897 0.124262 -0.936030 -0.329387 0.000000 0.944195
-3.868897 -0.124262 -0.936030 -0.329387 0.000000 0.944195
-0.978768 -0.124262 0.072206 -0.329387 0.000000 0.944195
-3.868897 0.124262 -0.936030 -0.992219 0.000000 0.124502
-4.106647 0.124262 -2.830778 -0.992219 0.000000 0.124502
-4.106647 -0.124262 -2.830778 -0.992219 0.000000 0.124502
-3.868897 -0.124262 -0.936030 -0.992219 0.000000 0.124502
-4.106647 0.124262 -2.830778 0.320401 0.000000 -0.947282
-0.731725 0.124262 -1.689270 0.320401 0.000000 -0.947282
-0.731725 -0.124262 -1.689270 0.320401 0.000000 -0.947282
-4.106647 -0.124262 -2.830778 0.320401 0.000000 -0.947282
-0.731725 -0.124262 -1.689270 0.000000 -1.000000 0.000000
-0.978768 -0.124262 0.072206 0.000000 -1.000000 0.000000
-3.868897 -0.124262 -0.936030 0.000000 -1.000000 0.000000
-4.106647 -0.124262 -2.830778 0.000000 -1.000000 0.000000
-4.106647 0.124262 -2.830778 0.000000 1.000000 0.000000
-3.868897 0.124262 -0.936030 0.000000 1.000000 0.000000
-0.978768 0.124262 0.072206 0.000000 1.000000 0.000000
-0.731725 0.124262 -1.689270 0.000000 1.000000 0.000000
4.106647 0.124262 -2.830778 0.992219 0.000000 0.124502
3.868897 0.124262 -0.936030 0.992219 0.000000 0.124502
3.868897 -0.124262 -0.936030 0.992219 0.000000 0.124502
4.106647 -0.124262 -2.830778 0.992219 0.000000 0.124502
3.868897 0.124262 -0.936030 0.329387 0.000000 0.944195
0.978768 0.124262 0.072206 0.329387 0.000000 0.944195
0.978768 -0.124262 0.072206 0.329387 0.000000 0.944195
3.868897 -0.124262 -0.936030 0.329387 0.000000 0.944195
0.978768 0.124262 0.072206 -0.990308 0.000000 0.138888
0.731725 0.124262 -1.689270 -0.990308 0.000000 0.138888
0.731725 -0.124262 -1.689270 -0.990308 0.000000 0.138888
0.978768 -0.124262 0.072206 -0.990308 0.000000 0.138888
0.731725 0.124262 -1.689270 -0.320401 0.000000 -0.947282
4.106647 0.124262 -2.830778 -0.320401 0.000000 -0.947282
4.106647 -0.124262 -2.830778 -0.320401 0.000000 -0.947282
0.731725 -0.124262 -1.689270 -0.320401 0.000000 -0.947282
4.106647 -0.124262 -2.830778 0.000000 -1.000000 0.000000
3.868897 -0.124262 -0.936030 0.000000 -1.000000 0.000000
0.978768 -0.124262 0.072206 0.000000 -1.000000 0.000000
0.731725 -0.124262 -1.689270 0.000000 -1.000000 0.000000
0.731725 0.124262 -1.689270 0.000000 1.000000 0.000000
0.978768 0.124262 0.072206 0.000000 1.000000 0.000000
3.868897 0.124262 -0.936030 0.000000 1.000000 0.000000
4.106647 0.124262 -2.830778 0.000000 1.000000 0.000000
-1.968589 -0.405970 0.189891 -0.701193 -0.701193 0.129002
-1.846663 -0.456473 0.189891 0.000000 -0.991638 0.129002
-1.846663 -0.359690 0.543746 0.000000 -0.686148 0.727439
-1.900153 -0.337534 0.543746 -0.485183 -0.485183 0.727439
1.724738 -0.405970 -2.412511 -0.548967 -0.548967 -0.630238
1.724738 -0.405970 0.189891 -0.701193 -0.701193 0.129002
1.674235 -0.284044 0.189891 -0.991638 0.000000 0.129002
1.674235 -0.284044 -2.412511 -0.776360 0.000000 -0.630238
-1.846663 -0.111616 0.189891 0.000000 0.991638 0.129002
-1.846663 -0.111616 -2.412511 0.000000 0.776360 -0.630238
-1.968589 -0.162119 -2.412511 -0.548967 0.548967 -0.630238
-1.968589 -0.162119 0.189891 -0.701193 0.701193 0.129002
1.922309 -0.284044 0.543746 0.686148 0.000000 0.727439
1.900153 -0.230555 0.543746 0.485183 0.485183 0.727439
1.846663 -0.208399 0.543746 0.000000 0.686148 0.727439
1.793173 -0.230555 0.543746 -0.485183 0.485183 0.727439
1.771017 -0.284044 0.543746 -0.686148 0.000000 0.727439
1.793173 -0.337534 0.543746 -0.485183 -0.485183 0.727439
1.846663 -0.359690 0.543746 0.000000 -0.686148 0.727439
1.900153 -0.337534 0.543746 0.485183 -0.485183 0.727439
1.724738 -0.162119 0.189891 -0.701193 0.701193 0.129002
-2.019092 -0.284044 -2.412511 -0.776360 0.000000 -0.630238
-2.019092 -0.284044 0.189891 -0.991638 0.000000 0.129002
-1.900153 -0.230555 0.543746 -0.485183 0.485183 0.727439
-1.846663 -0.208399 0.543746 0.000000 0.686148 0.727439
1.846663 -0.111616 0.189891 0.000000 0.991638 0.129002
-1.968589 -0.405970 -2.412511 -0.548967 -0.548967 -0.630238
-1.674235 -0.284044 0.189891 0.991638 0.000000 0.129002
-1.724738 -0.162119 0.189891 0.701193 0.701193 0.129002
-1.793173 -0.230555 0.543746 0.485183 0.485183 0.727439
-1.771017 -0.284044 0.543746 0.686148 0.000000 0.727439
1.846663 -0.456473 -2.412511 0.000000 -0.776360 -0.630238
1.846663 -0.456473 0.189891 0.000000 -0.991638 0.129002
-1.846663 -0.456473 -2.412511 0.000000 -0.776360 -0.630238
1.724738 -0.162119 -2.412511 -0.548967 0.548967 -0.630238
2.019092 -0.284044 0.189891 0.991638 0.000000 0.129002
1.968589 -0.162119 0.189891 0.701193 0.701193 0.129002
-1.724738 -0.405970 -2.412511 0.548967 -0.548967 -0.630238
-1.724738 -0.405970 0.189891 0.701193 -0.701193 0.129002
-1.793173 -0.337534 0.543746 0.485183 -0.485183 0.727439
-1.674235 -0.284044 -2.412511 0.776360 0.000000 -0.630238
-2.019092 -0.284044 -2.412511 0.000000 0.000000 -1.000000
-1.968589 -0.162119 -2.412511 0.000000 0.000000 -1.000000
-1.846663 -0.111616 -2.412511 0.000000 0.000000 -1.000000
-1.724738 -0.162119 -2.412511 0.000000 0.000000 -1.000000
-1.674235 -0.284044 -2.412511 0.000000 0.000000 -1.000000
-1.724738 -0.405970 -2.412511 0.000000 0.000000 -1.000000
-1.846663 -0.456473 -2.412511 0.000000 0.000000 -1.000000
-1.968589 -0.405970 -2.412511 0.000000 0.000000 -1.000000
-1.724738 -0.162119 -2.412511 0.548967 0.548967 -0.630238
1.846663 -0.111616 -2.412511 0.000000 0.776360 -0.630238
1.968589 -0.162119 -2.412511 0.548967 0.548967 -0.630238
1.968589 -0.405970 0.189891 0.701193 -0.701193 0.129002
-1.922309 -0.284044 0.543746 -0.686148 0.000000 0.727439
2.019092 -0.284044 -2.412511 0.776360 0.000000 -0.630238
1.968589 -0.405970 -2.412511 0.548967 -0.548967 -0.630238
1.724738 -0.162119 -2.412511 -0.000000 0.000000 -1.000000
1.846663 -0.111616 -2.412511 -0.000000 0.000000 -1.000000
1.968589 -0.162119 -2.412511 -0.000000 0.000000 -1.000000
2.019092 -0.284044 -2.412511 0.000000 0.000000 -1.000000
1.968589 -0.405970 -2.412511 0.000000 0.000000 -1.000000
1.846663 -0.456473 -2.412511 0.000000 0.000000 -1.000000
1.724738 -0.405970 -2.412511 0.000000 0.000000 -1.000000
1.674235 -0.284044 -2.412511 0.000000 -0.000000 -1.000000
-2.859914 -0.193690 -0.456366 -0.706534 -0.706504 0.040193
-2.827006 -0.207321 -0.456366 0.000000 -0.999176 0.040193
-2.827006 -0.181199 -0.135417 0.000000 -0.750816 0.660482
-2.841443 -0.175219 -0.135417 -0.530900 -0.530900 0.660482
2.794098 -0.193690 -2.816763 -0.548967 -0.548967 -0.630238
2.794098 -0.193690 -0.456366 -0.706534 -0.706504 0.040193
2.780468 -0.160782 -0.456366 -0.999176 0.000000 0.040193
2.780468 -0.160782 -2.816763 -0.776360 0.000000 -0.630238
-2.827006 -0.114243 -0.456366 0.000000 0.999176 0.040193
-2.827006 -0.114243 -2.816763 0.000000 0.776360 -0.630238
-2.859914 -0.127874 -2.816763 -0.548967 0.548967 -0.630238
-2.859914 -0.127874 -0.456366 -0.706534 0.706504 0.040193
2.847423 -0.160782 -0.135417 0.750816 0.000000 0.660482
2.841443 -0.146345 -0.135417 0.530900 0.530900 0.660482
2.827006 -0.140365 -0.135417 0.000000 0.750816 0.660482
2.812569 -0.146345 -0.135417 -0.530900 0.530900 0.660482
2.806590 -0.160782 -0.135417 -0.750816 0.000000 0.660482
2.812569 -0.175219 -0.135417 -0.530900 -0.530900 0.660482
2.827006 -0.181199 -0.135417 0.000000 -0.750816 0.660482
2.841443 -0.175219 -0.135417 0.530900 -0.530900 0.660482
2.794098 -0.127874 -0.456366 -0.706534 0.706504 0.040193
-2.873545 -0.160782 -2.816763 -0.776360 0.000000 -0.630238
-2.873545 -0.160782 -0.456366 -0.999176 0.000000 0.040193
-2.841443 -0.146345 -0.135417 -0.530900 0.530900 0.660482
-2.827006 -0.140365 -0.135417 0.000000 0.750816 0.660482
2.827006 -0.114243 -0.456366 0.000000 0.999176 0.040193
-2.859914 -0.193690 -2.816763 -0.548967 -0.548967 -0.630238
-2.780468 -0.160782 -0.456366 0.999176 0.000000 0.040193
-2.794098 -0.127874 -0.456366 0.706534 0.706504 0.040193
-2.812569 -0.146345 -0.135417 0.530900 0.530900 0.660482
-2.806590 -0.160782 -0.135417 0.750816 0.000000 0.660482
2.827006 -0.207321 -2.816763 0.000000 -0.776360 -0.630238
2.827006 -0.207321 -0.456366 0.000000 -0.999176 0.040193
-2.827006 -0.207321 -2.816763 0.000000 -0.776360 -0.630238
2.794098 -0.127874 -2.816763 -0.548967 0.548967 -0.630238
2.873545 -0.160782 -0.456366 0.999176 0.000000 0.040193
2.859914 -0.127874 -0.456366 0.706534 0.706504 0.040193
-2.794098 -0.193690 -2.816763 0.548967 -0.548967 -0.630238
-2.794098 -0.193690 -0.456366 0.706534 -0.706504 0.040193
-2.812569 -0.175219 -0.135417 0.530900 -0.530900 0.660482
-2.780468 -0.160782 -2.816763 0.776360 0.000000 -0.630238
-2.873545 -0.160782 -2.816763 0.000000 0.000000 -1.000000
-2.859914 -0.127874 -2.816763 0.000000 0.000000 -1.000000
-2.827006 -0.114243 -2.816763 0.000000 0.000000 -1.000000
-2.794098 -0.127874 -2.816763 0.000000 0.000000 -1.000000
-2.780468 -0.160782 -2.816763 0.000000 0.000000 -1.000000
-2.794098 -0.193690 -2.816763 0.000000 0.000000 -1.000000
-2.827006 -0.207321 -2.816763 0.000000 0.000000 -1.000000
-2.859914 -0.193690 -2.816763 0.000000 0.000000 -1.000000
-2.794098 -0.127874 -2.816763 0.548967 0.548967 -0.630238
2.827006 -0.114243 -2.816763 0.000000 0.776360 -0.630238
2.859914 -0.127874 -2.816763 0.548967 0.548967 -0.630238
2.859914 -0.193690 -0.456366 0.706534 -0.706504 0.040193
-2.847423 -0.160782 -0.135417 -0.750816 0.000000 0.660482
2.873545 -0.160782 -2.816763 0.776360 0.000000 -0.630238
2.859914 -0.193690 -2.816763 0.548967 -0.548967 -0.630238
2.794098 -0.127874 -2.816763 -0.000000 0.000000 -1.000000
2.827006 -0.114243 -2.816763 -0.000000 0.000000 -1.000000
2.859914 -0.127874 -2.816763 -0.000000 0.000000 -1.000000
2.873545 -0.160782 -2.816763 0.000000 0.000000 -1.000000
2.859914 -0.193690 -2.816763 0.000000 0.000000 -1.000000
2.827006 -0.207321 -2.816763 0.000000 0.000000 -1.000000
2.794098 -0.193690 -2.816763 0.000000 0.000000 -1.000000
2.780468 -0.160782 -2.816763 0.000000 -0.000000 -1.000000
3.866433 -0.146571 -2.904043 0.055971 0.776360 -0.627766
3.626939 -0.146571 -0.219438 -0.007050 0.996826 0.078982
3.702055 -0.177809 -0.212737 0.695029 0.704856 0.141636
3.941549 -0.177809 -2.897342 0.602802 0.548967 -0.578967
3.760203 -0.253223 -2.913520 -0.717307 0.000000 -0.696738
3.520709 -0.253223 -0.228915 -0.999939 0.000000 -0.009552
3.551823 -0.177809 -0.226139 -0.709128 0.704856 0.016358
3.791317 -0.177809 -2.910744 -0.490799 0.548967 -0.676534
-3.733169 -0.253223 -0.209961 -0.985839 0.000000 0.167577
-3.702055 -0.328637 -0.212737 -0.695029 -0.704856 0.141636
-3.627328 -0.286308 0.148535 -0.448469 -0.511795 0.732719
-3.640978 -0.253223 0.149752 -0.659627 0.000000 0.751579
-3.626939 -0.359875 -0.219438 0.007050 -0.996826 0.078982
-3.594374 -0.300012 0.145595 0.061312 -0.723808 0.687246
-3.520709 -0.253223 -0.228915 0.999939 0.000000 -0.009552
-3.551823 -0.177809 -0.226139 0.709128 0.704856 0.016358
-3.561420 -0.220138 0.142655 0.571093 0.511795 0.641774
-3.547771 -0.253223 0.141437 0.782250 0.000000 0.622944
-3.702055 -0.177809 -0.212737 -0.695029 0.704856 0.141636
-3.627328 -0.220138 0.148535 -0.448469 0.511795 0.732719
3.791317 -0.177809 -2.910744 0.088856 0.000000 -0.996045
3.866433 -0.146571 -2.904043 0.088856 0.000000 -0.996045
3.941549 -0.177809 -2.897342 0.088856 0.000000 -0.996045
3.941549 -0.177809 -2.897342 0.088856 0.000000 -0.996044
3.972663 -0.253223 -2.894567 0.088856 0.000000 -0.996044
3.941549 -0.328637 -2.897342 0.088856 0.000000 -0.996044
3.941549 -0.328637 -2.897342 0.088856 -0.000000 -0.996045
3.866433 -0.359875 -2.904043 0.088856 -0.000000 -0.996045
3.791317 -0.328637 -2.910744 0.088856 -0.000000 -0.996045
3.791317 -0.328637 -2.910744 0.088858 0.000000 -0.996044
3.760203 -0.253223 -2.913520 0.088858 0.000000 -0.996044
3.791317 -0.177809 -2.910744 0.088858 0.000000 -0.996044
3.561420 -0.220138 0.142655 -0.571093 0.511795 0.641774
3.594374 -0.206434 0.145595 -0.061312 0.723808 0.687246
3.733169 -0.253223 -0.209961 0.985839 0.000000 0.167577
3.972663 -0.253223 -2.894567 0.829310 0.000000 -0.558763
-3.972663 -0.253223 -2.894567 -0.088855 -0.000000 -0.996045
-3.941549 -0.177809 -2.897342 -0.088855 -0.000000 -0.996045
-3.866433 -0.146571 -2.904043 -0.088855 -0.000000 -0.996045
-3.866433 -0.146571 -2.904043 -0.088855 0.000001 -0.996045
-3.791317 -0.177809 -2.910744 -0.088855 0.000001 -0.996045
-3.760203 -0.253223 -2.913520 -0.088855 0.000001 -0.996045
-3.760203 -0.253223 -2.913520 -0.088855 -0.000001 -0.996045
-3.791317 -0.328637 -2.910744 -0.088855 -0.000001 -0.996045
-3.866433 -0.359875 -2.904043 -0.088855 -0.000001 -0.996045
-3.866433 -0.359875 -2.904043 -0.088855 0.000000 -0.996045
-3.941549 -0.328637 -2.897342 -0.088855 0.000000 -0.996045
-3.972663 -0.253223 -2.894567 -0.088856 0.000000 -0.996045
-3.866433 -0.146571 -2.904043 -0.088856 0.000000 -0.996045
-3.760203 -0.253223 -2.913520 -0.088856 0.000000 -0.996045
-3.760203 -0.253223 -2.913520 -0.088856 -0.000000 -0.996044
-3.866433 -0.359875 -2.904043 -0.088856 -0.000000 -0.996044
-3.972663 -0.253223 -2.894567 -0.088856 -0.000000 -0.996044
-3.551823 -0.328637 -0.226139 0.709128 -0.704856 0.016358
-3.561420 -0.286308 0.142655 0.571093 -0.511795 0.641774
3.626939 -0.359875 -0.219438 -0.007050 -0.996826 0.078982
3.702055 -0.328637 -0.212737 0.695029 -0.704856 0.141636
3.627328 -0.286308 0.148535 0.448469 -0.511795 0.732719
3.594374 -0.300012 0.145595 -0.061312 -0.723808 0.687246
3.866433 -0.359875 -2.904043 0.055971 -0.776360 -0.627766
3.551823 -0.328637 -0.226139 -0.709128 -0.704856 0.016358
3.791317 -0.328637 -2.910744 -0.490799 -0.548967 -0.676534
3.640978 -0.253223 0.149752 0.659627 0.000000 0.751579
3.627328 -0.220138 0.148535 0.448469 0.511795 0.732719
3.547771 -0.253223 0.141437 -0.782250 0.000000 0.622944
3.561420 -0.286308 0.142655 -0.571093 -0.511795 0.641774
-3.866433 -0.359875 -2.904043 -0.056001 -0.776360 -0.627766
-3.791317 -0.328637 -2.910744 0.490799 -0.548967 -0.676534
-3.760203 -0.253223 -2.913520 0.717307 0.000000 -0.696738
-3.791317 -0.177809 -2.910744 0.490799 0.548967 -0.676534
3.941549 -0.328637 -2.897342 0.602802 -0.548967 -0.578967
-3.866433 -0.146571 -2.904043 -0.055971 0.776360 -0.627766
-3.626939 -0.146571 -0.219438 0.007050 0.996826 0.078982
-3.972663 -0.253223 -2.894567 -0.829310 0.000000 -0.558763
-3.941549 -0.328637 -2.897342 -0.602802 -0.548967 -0.578967
-3.941549 -0.177809 -2.897342 -0.602802 0.548967 -0.578967
-3.594374 -0.206434 0.145595 0.061312 0.723808 0.687246
-0.110057 -0.087496 3.686193 -0.524735 -0.561266 0.639973
-0.169723 0.034488 3.686193 -0.751152 -0.007935 0.660054
0.104444 0.156471 3.690989 0.577227 0.430799 0.693655
0.169723 0.034488 3.686193 0.751152 -0.007935 0.660054
-0.104444 0.156471 3.690989 -0.577227 0.430799 0.693655
0.055942 0.197637 3.695917 0.332469 0.608386 0.720603
-0.055942 0.197637 3.695917 -0.332469 0.608386 0.720603
0.110057 -0.087496 3.686193 0.524735 -0.561266 0.639973
0.000000 -0.138023 3.684425 0.000000 -0.781457 0.623920
0.000000 0.206998 3.698811 0.000000 0.659108 0.752037
0.000000 0.024510 3.765633 0.000000 -0.052461 0.998596
0.324100 0.889549 1.525262 0.387249 0.880306 0.273965
0.276482 0.783184 1.940902 0.372234 0.886807 0.273843
0.547946 0.611780 1.952729 0.711966 0.639485 0.290017
0.647434 0.693787 1.536505 0.711386 0.639973 0.290445
0.228863 0.676819 2.356541 0.380963 0.882809 0.274758
0.448458 0.529772 2.368954 0.717429 0.633808 0.289010
0.611656 -0.460139 1.544236 0.656209 -0.714469 0.242653
0.524464 -0.399353 1.955525 0.643605 -0.726279 0.241340
0.000000 -0.593026 1.950379 0.000000 -0.976867 0.213782
0.000000 -0.678138 1.548734 0.000000 -0.976959 0.213294
0.437272 -0.338568 2.366813 0.648793 -0.721671 0.241249
0.000000 -0.507913 2.352024 0.000000 -0.976592 0.215064
0.789748 0.115301 1.937549 0.955535 -0.013276 0.294504
0.917860 0.128941 1.520269 0.955535 -0.002869 0.294839
0.661636 0.101661 2.354829 0.955473 -0.007965 0.294900
0.000000 0.934376 1.651789 0.000000 0.961577 0.274483
0.000000 0.822395 2.042429 0.000000 0.961608 0.274361
0.000000 0.710413 2.433069 0.000000 0.961669 0.274117
-0.324100 0.889549 1.525262 -0.387249 0.880306 0.273965
-0.647434 0.693787 1.536505 -0.711386 0.639973 0.290445
-0.547946 0.611780 1.952729 -0.711966 0.639485 0.290017
-0.276482 0.783184 1.940902 -0.372234 0.886807 0.273843
-0.448458 0.529772 2.368954 -0.717429 0.633808 0.289010
-0.228863 0.676819 2.356541 -0.380963 0.882809 0.274758
-0.611656 -0.460139 1.544236 -0.656209 -0.714469 0.242653
-0.524464 -0.399353 1.955525 -0.643605 -0.726279 0.241340
-0.437272 -0.338568 2.366813 -0.648793 -0.721671 0.241249
-0.917860 0.128941 1.520269 -0.955535 -0.002869 0.294839
-0.789748 0.115301 1.937549 -0.955535 -0.013276 0.294504
-0.661636 0.101661 2.354829 -0.955473 -0.007965 0.294900
0.000000 -1.218540 -1.742264 0.000000 -0.445784 -0.895108
-0.936459 -0.865469 -1.740507 -0.298013 -0.347331 -0.889096
-0.691498 -0.541449 -1.948888 -0.300943 -0.345134 -0.888974
0.000000 -0.802163 -1.948888 0.000000 -0.445784 -0.895108
-1.540955 -0.008482 -1.689397 -0.283425 -0.277902 -0.917814
-1.079394 0.872518 -2.207836 0.366344 -0.689627 -0.624592
-0.955551 0.655959 -1.948888 0.173284 -0.542528 -0.821955
-1.061956 0.086654 -1.948888 -0.245094 -0.285348 -0.926542
0.549108 1.370598 -2.747408 -0.280923 -0.898465 -0.337352
1.079394 0.872518 -2.207836 -0.366344 -0.689627 -0.624592
0.955551 0.655959 -1.948888 -0.173284 -0.542528 -0.821955
0.498203 1.104209 -1.948888 -0.360057 -0.855129 -0.372906
0.000000 1.578271 -3.105258 0.000000 -0.952727 -0.303781
0.000000 1.232091 -1.948888 0.000000 -0.952727 -0.303781
1.540955 -0.008482 -1.689397 0.283425 -0.277902 -0.917814
1.061956 0.086654 -1.948888 0.245094 -0.285348 -0.926542
0.936459 -0.865469 -1.740507 0.298013 -0.347331 -0.889096
0.691498 -0.541449 -1.948888 0.300943 -0.345134 -0.888974
-0.549108 1.370598 -2.747408 0.280923 -0.898465 -0.337352
-0.498203 1.104209 -1.948888 0.360057 -0.855129 -0.372906
0.000000 -0.802163 -1.948888 0.000000 -0.961180 -0.275796
-0.691498 -0.541449 -1.948888 -0.618702 -0.736808 -0.272561
-0.514360 -0.324856 -2.936425 -0.434004 -0.515183 -0.739036
0.000000 -0.518784 -2.936425 0.000000 -0.676107 -0.736778
0.955551 0.655959 -1.948888 0.856319 0.449995 -0.253334
1.061956 0.086654 -1.948888 0.947874 -0.168187 -0.270577
0.789919 0.142348 -2.936425 0.667837 -0.116153 -0.735160
0.710771 0.565817 -2.936425 0.593616 0.322214 -0.737388
-0.955551 0.655959 -1.948888 -0.856319 0.449995 -0.253334
-0.498203 1.104209 -1.948888 -0.478378 0.845454 -0.237281
-0.370581 0.899240 -2.936425 -0.329722 0.587390 -0.739067
-0.710771 0.565817 -2.936425 -0.593616 0.322214 -0.737388
-1.061956 0.086654 -1.948888 -0.947874 -0.168187 -0.270577
-0.789919 0.142348 -2.936425 -0.667837 -0.116153 -0.735160
0.000000 1.232091 -1.948888 0.000000 0.972198 -0.234016
0.498203 1.104209 -1.948888 0.478378 0.845454 -0.237281
0.370581 0.899240 -2.936425 0.329722 0.587390 -0.739067
0.000000 0.994363 -2.936425 0.000000 0.672842 -0.739769
0.691498 -0.541449 -1.948888 0.618702 -0.736808 -0.272561
0.514360 -0.324856 -2.936425 0.434004 -0.515183 -0.739036
-0.710771 0.565817 -2.936425 0.000000 0.000000 -1.000000
-0.370581 0.899240 -2.936425 0.000000 0.000000 -1.000000
-0.123147 0.501849 -2.936425 0.000000 0.000000 -1.000000
-0.236196 0.391049 -2.936425 0.000000 0.000000 -1.000000
-0.514360 -0.324856 -2.936425 -0.000000 0.000000 -1.000000
-0.789919 0.142348 -2.936425 -0.000000 0.000000 -1.000000
-0.262497 0.250326 -2.936425 -0.000000 0.000000 -1.000000
-0.170926 0.095070 -2.936425 -0.000000 0.000000 -1.000000
0.000000 0.994363 -2.936425 0.000000 0.000000 -1.000000
0.370581 0.899240 -2.936425 0.000000 0.000000 -1.000000
0.123147 0.501849 -2.936425 0.000000 0.000000 -1.000000
0.000000 0.533459 -2.936425 0.000000 0.000000 -1.000000
0.514360 -0.324856 -2.936425 0.000000 -0.000000 -1.000000
0.000000 -0.518784 -2.936425 0.000000 -0.000000 -1.000000
0.000000 0.030626 -2.936425 0.000000 -0.000000 -1.000000
0.170926 0.095070 -2.936425 0.000000 -0.000000 -1.000000
0.710771 0.565817 -2.936425 0.000000 0.000000 -1.000000
0.236196 0.391049 -2.936425 0.000000 0.000000 -1.000000
0.789919 0.142348 -2.936425 0.000000 0.000000 -1.000000
0.262497 0.250326 -2.936425 0.000000 0.000000 -1.000000
-0.170926 0.095070 -2.936425 0.394543 0.469161 -0.790063
-0.262497 0.250326 -2.936425 0.597003 0.104953 -0.795312
-0.262497 0.250326 -2.662483 0.760063 0.133641 -0.635945
-0.170926 0.095070 -2.662483 0.494858 0.588427 -0.639393
0.000000 0.533459 -2.936425 0.000000 -0.640950 -0.767571
0.123147 0.501849 -2.936425 -0.313120 -0.555467 -0.770318
0.123147 0.501849 -2.662483 -0.371807 -0.659597 -0.653157
0.000000 0.533459 -2.662483 0.000000 -0.755455 -0.655171
0.170926 0.095070 -2.936425 -0.394543 0.469161 -0.790063
0.000000 0.030626 -2.936425 0.000000 0.605579 -0.795740
0.000000 0.030626 -2.662483 0.000000 0.771966 -0.635639
0.170926 0.095070 -2.662483 -0.494858 0.588427 -0.639393
-0.236196 0.391049 -2.936425 0.550523 -0.293710 -0.781426
-0.236196 0.391049 -2.662483 0.674001 -0.359600 -0.645283
0.236196 0.391049 -2.936425 -0.550523 -0.293710 -0.781426
0.236196 0.391049 -2.662483 -0.674001 -0.359600 -0.645283
0.262497 0.250326 -2.936425 -0.597003 0.104953 -0.795312
0.262497 0.250326 -2.662483 -0.760063 0.133641 -0.635945
-0.123147 0.501849 -2.936425 0.313120 -0.555467 -0.770318
-0.123147 0.501849 -2.662483 0.371807 -0.659597 -0.653157
0.000000 0.030626 -2.662483 0.000000 0.000000 -1.000000
-0.170926 0.095070 -2.662483 0.000000 0.000000 -1.000000
-0.262497 0.250326 -2.662483 0.000000 0.000000 -1.000000
-0.236196 0.391049 -2.662483 0.000000 0.000000 -1.000000
-0.123147 0.501849 -2.662483 0.000000 0.000000 -1.000000
0.000000 0.533459 -2.662483 -0.000000 0.000000 -1.000000
0.123147 0.501849 -2.662483 -0.000000 0.000000 -1.000000
0.236196 0.391049 -2.662483 0.000000 0.000000 -1.000000
0.262497 0.250326 -2.662483 0.000000 0.000000 -1.000000
0.170926 0.095070 -2.662483 0.000000 0.000000 -1.000000
-0.792439 0.895065 -3.215278 0.810868 -0.569454 -0.134966
-0.488269 1.038084 -1.419915 0.810868 -0.569454 -0.134966
-1.057168 0.005559 -1.052719 0.810868 -0.569454 -0.134966
-1.292863 0.241438 -2.892619 0.810868 -0.569454 -0.134966
-0.488269 1.038084 -1.419915 0.251658 0.198228 0.947298
-0.596208 1.102410 -1.404700 0.251658 0.198228 0.947298
-1.165106 0.069884 -1.037505 0.251658 0.198228 0.947298
-1.057168 0.005559 -1.052719 0.251658 0.198228 0.947298
-0.596208 1.102410 -1.404700 -0.810868 0.569454 0.134966
-0.900377 0.959391 -3.200063 -0.810868 0.569454 0.134966
-1.400801 0.305764 -2.877405 -0.810868 0.569454 0.134966
-1.165106 0.069884 -1.037505 -0.810868 0.569454 0.134966
-0.900377 0.959391 -3.200063 -0.277500 -0.245989 -0.928700
-0.792439 0.895065 -3.215278 -0.277500 -0.245989 -0.928700
-1.292863 0.241438 -2.892619 -0.277500 -0.245989 -0.928700
-1.400801 0.305764 -2.877405 -0.277500 -0.245989 -0.928700
-1.292863 0.241438 -2.892619 -0.515973 -0.855496 -0.043580
-1.057168 0.005559 -1.052719 -0.515973 -0.855496 -0.043580
-1.165106 0.069884 -1.037505 -0.515973 -0.855496 -0.043580
-1.400801 0.305764 -2.877405 -0.515973 -0.855496 -0.043580
-0.900377 0.959391 -3.200063 0.490192 0.858360 -0.151425
-0.596208 1.102410 -1.404700 0.490192 0.858360 -0.151425
-0.488269 1.038084 -1.419915 0.490192 0.858360 -0.151425
-0.792439 0.895065 -3.215278 0.490192 0.858360 -0.151425
0.900377 0.959391 -3.200063 0.810868 0.569454 0.134966
0.596208 1.102410 -1.404700 0.810868 0.569454 0.134966
1.165106 0.069884 -1.037505 0.810868 0.569454 0.134966
1.400801 0.305764 -2.877405 0.810868 0.569454 0.134966
0.596208 1.102410 -1.404700 -0.251658 0.198228 0.947298
0.488269 1.038084 -1.419915 -0.251658 0.198228 0.947298
1.057168 0.005559 -1.052719 -0.251658 0.198228 0.947298
1.165106 0.069884 -1.037505 -0.251658 0.198228 0.947298
0.488269 1.038084 -1.419915 -0.810868 -0.569454 -0.134966
0.792439 0.895065 -3.215278 -0.810868 -0.569454 -0.134966
1.292863 0.241438 -2.892619 -0.810868 -0.569454 -0.134966
1.057168 0.005559 -1.052719 -0.810868 -0.569454 -0.134966
0.792439 0.895065 -3.215278 0.277500 -0.245989 -0.928700
0.900377 0.959391 -3.200063 0.277500 -0.245989 -0.928700
1.400801 0.305764 -2.877405 0.277500 -0.245989 -0.928700
1.292863 0.241438 -2.892619 0.277500 -0.245989 -0.928700
1.400801 0.305764 -2.877405 0.515973 -0.855496 -0.043580
1.165106 0.069884 -1.037505 0.515973 -0.855496 -0.043580
1.057168 0.005559 -1.052719 0.515973 -0.855496 -0.043580
1.292863 0.241438 -2.892619 0.515973 -0.855496 -0.043580
0.792439 0.895065 -3.215278 -0.490192 0.858360 -0.151425
0.488269 1.038084 -1.419915 -0.490192 0.858360 -0.151425
0.596208 1.102410 -1.404700 -0.490192 0.858360 -0.151425
0.900377 0.959391 -3.200063 -0.490192 0.858360 -0.151425
0.549108 1.370598 -2.747408 0.386273 0.915799 0.109684
0.488543 1.303239 -2.001020 0.436628 0.893429 0.105380
1.009344 0.877578 -1.584074 0.732109 0.675375 0.088412
1.079394 0.872518 -2.207836 0.707755 0.700522 0.091006
0.427978 1.235880 -1.254632 0.396985 0.911985 0.103122
0.939293 0.882638 -0.960312 0.705130 0.703757 0.086520
0.000000 1.578271 -3.105258 0.000000 0.992859 0.119236
0.000000 1.473782 -2.273667 0.000000 0.992889 0.118961
0.000000 1.369293 -1.442076 0.000000 0.992981 0.118107
1.480667 0.021404 -1.158286 0.993652 -0.027467 0.108921
1.540955 -0.008482 -1.689397 0.993805 0.025147 0.108036
1.420378 0.051291 -0.627174 0.994110 -0.009033 0.107730
0.911027 -0.824111 -1.199495 0.614978 -0.782128 0.100253
0.936459 -0.865469 -1.740507 0.605335 -0.789636 0.099948
0.885596 -0.782753 -0.658482 0.623890 -0.774987 0.100528
0.000000 -1.167816 -1.210407 0.000000 -0.995514 0.094302
0.000000 -1.218540 -1.742264 0.000000 -0.995514 0.094302
0.000000 -1.117092 -0.678549 0.000000 -0.995514 0.094302
-1.079394 0.872518 -2.207836 -0.707755 0.700522 0.091006
-1.009344 0.877578 -1.584074 -0.732109 0.675375 0.088412
-0.488543 1.303239 -2.001020 -0.436628 0.893429 0.105380
-0.549108 1.370598 -2.747408 -0.386273 0.915799 0.109684
-0.939293 0.882638 -0.960312 -0.705130 0.703757 0.086520
-0.427978 1.235880 -1.254632 -0.396985 0.911985 0.103122
-1.540955 -0.008482 -1.689397 -0.993805 0.025147 0.108036
-1.480667 0.021404 -1.158286 -0.993652 -0.027467 0.108921
-1.420378 0.051291 -0.627174 -0.994110 -0.009033 0.107730
-0.936459 -0.865469 -1.740507 -0.605335 -0.789636 0.099948
-0.911027 -0.824111 -1.199495 -0.614978 -0.782128 0.100253
-0.885596 -0.782753 -0.658482 -0.623890 -0.774987 0.100528
4 0 1 2 3
4 3 2 4 5
4 5 4 6 7
4 8 9 10 11
4 12 13 14 15
4 16 17 18 19
3 20 21 12
3 12 15 22
3 12 22 20
4 17 23 24 18
4 13 16 19 14
4 25 26 27 28
4 29 30 31 32
4 33 25 28 34
4 26 35 36 27
4 37 33 34 38
4 39 40 33 37
4 41 42 35 26
4 40 43 25 33
4 44 45 46 47
4 43 41 26 25
4 48 49 50 51
3 52 53 54
3 54 55 56
3 54 56 52
4 57 48 51 58
4 49 59 60 50
4 55 57 58 56
4 61 62 63 64
4 65 66 67 68
4 69 61 64 70
4 62 71 72 63
4 66 69 70 67
4 7 6 9 8
4 73 74 1 0
4 75 76 74 73
4 77 78 76 75
4 11 10 79 80
4 81 82 83 84
4 85 86 87 88
3 81 21 20
3 89 82 81
3 20 89 81
4 88 87 24 23
4 84 83 86 85
4 90 91 92 93
4 94 95 96 97
4 98 99 91 90
4 93 92 36 35
4 100 101 99 98
4 102 100 98 103
4 104 93 35 42
4 103 98 90 105
4 106 107 108 109
4 105 90 93 104
4 110 111 112 113
3 114 53 52
3 52 115 116
3 52 116 114
4 117 118 111 110
4 113 112 60 59
4 116 115 118 117
4 119 120 121 122
4 65 68 123 124
4 125 126 120 119
4 122 121 72 71
4 124 123 126 125
4 127 128 129 130
4 131 132 133 134
4 135 136 137 138
4 139 140 141 142
4 143 144 145 146
4 147 148 149 150
4 151 152 153 154
4 155 156 157 158
4 159 160 161 162
4 163 164 165 166
4 167 168 169 170
4 163 171 172 164
4 167 173 174 168
4 175 176 177 178
4 179 180 181 182
4 183 184 185 186
4 187 188 189 190
4 191 192 193 194
4 195 196 197 198
4 199 200 201 202
4 203 204 205 206
4 207 208 209 210
4 211 212 213 214
4 215 216 217 218
4 219 220 221 222
4 223 224 225 226
4 227 228 229 230
4 231 232 233 234
4 235 236 237 238
4 239 240 241 242
4 243 244 245 246
3 247 248 249
3 249 250 251
3 251 252 253
3 253 254 247
3 247 249 251
3 251 253 247
4 255 241 251 250
4 246 245 256 257
4 243 246 258 259
4 260 255 250 249
4 257 256 261 235
4 262 263 264 265
4 266 267 240 239
4 235 261 268 236
4 242 241 255 269
4 270 271 248 247
4 236 268 272 273
4 240 267 253 252
4 273 262 265 274
4 273 272 275 262
3 276 277 278
3 278 279 280
3 280 281 282
3 282 283 276
3 276 278 280
3 280 282 276
4 263 284 244 243
4 262 275 284 263
4 269 255 260 285
4 271 260 249 248
4 236 273 274 237
4 285 260 271 286
4 267 287 254 253
3 264 259 258
3 258 288 238
3 238 237 274
3 274 265 264
3 264 258 238
3 238 274 264
4 286 271 270 289
4 246 257 288 258
4 290 287 267 266
4 289 270 287 290
4 257 235 238 288
4 241 240 252 251
3 291 292 293
3 293 294 295
3 295 296 297
3 297 298 291
3 291 293 295
3 295 297 291
4 287 270 247 254
4 263 243 259 264
4 299 300 301 302
4 303 304 305 306
4 307 308 309 310
3 311 312 313
3 313 314 315
3 315 316 317
3 317 318 311
3 311 313 315
3 315 317 311
4 319 305 315 314
4 310 309 320 321
4 307 310 322 323
4 324 319 314 313
4 321 320 325 299
4 326 327 328 329
4 330 331 304 303
4 299 325 332 300
4 306 305 319 333
4 334 335 312 311
4 300 332 336 337
4 304 331 317 316
4 337 326 329 338
4 337 336 339 326
3 340 341 342
3 342 343 344
3 344 345 346
3 346 347 340
3 340 342 344
3 344 346 340
4 327 348 308 307
4 326 339 348 327
4 333 319 324 349
4 335 324 313 312
4 300 337 338 301
4 349 324 335 350
4 331 351 318 317
3 328 323 322
3 322 352 302
3 302 301 338
3 338 329 328
3 328 322 302
3 302 338 328
4 350 335 334 353
4 310 321 352 322
4 354 351 331 330
4 353 334 351 354
4 321 299 302 352
4 305 304 316 315
3 355 356 357
3 357 358 359
3 359 360 361
3 361 362 355
3 355 357 359
3 359 361 355
4 351 334 311 318
4 327 307 323 328
4 363 364 365 366
4 367 368 369 370
4 371 372 373 374
4 372 375 376 373
4 377 378 379 380
4 381 371 374 382
3 383 384 385
3 386 387 388
3 389 390 391
3 392 393 394
3 383 385 389
3 389 391 383
4 364 369 395 396
4 366 365 397 398
3 399 400 401
3 402 403 404
3 405 406 407
3 408 409 399
3 410 411 412
3 413 414 415
4 416 377 380 417
4 418 419 420 421
4 422 418 423 424
3 425 426 396
3 396 395 427
3 427 428 421
3 421 420 425
3 425 396 427
3 427 421 425
4 375 416 417 376
4 375 429 430 416
4 377 431 432 378
4 370 369 364 363
4 433 419 418 422
4 398 397 419 433
4 378 432 434 435
4 371 436 437 372
4 381 438 436 371
4 365 364 396 426
4 435 381 382 439
4 397 365 426 425
4 419 397 425 420
4 369 368 427 395
4 368 423 428 427
4 416 430 431 377
4 435 434 438 381
3 379 439 382
3 382 374 373
3 373 376 417
3 417 380 379
3 379 382 373
3 373 417 379
4 372 437 429 375
4 423 418 421 428
4 424 423 368 367
4 378 435 439 379
4 64 63 440 441
4 120 126 442 443
4 70 64 441 444
4 126 123 445 442
4 67 70 444 446
4 72 121 447 448
4 63 72 448 440
4 123 68 449 445
4 68 67 446 449
4 121 120 443 447
3 443 442 450
3 449 446 450
3 441 440 450
3 442 445 450
3 448 447 450
3 444 441 450
3 445 449 450
3 447 443 450
3 446 444 450
3 440 448 450
4 80 79 78 77
4 451 452 453 454
4 452 455 456 453
4 455 124 125 456
4 457 458 459 460
4 458 461 462 459
4 461 122 71 462
4 454 453 463 464
4 453 456 465 463
4 456 125 119 465
4 466 467 452 451
4 467 468 455 452
4 468 65 124 455
4 464 463 458 457
4 463 465 461 458
4 465 119 122 461
4 469 470 471 472
4 472 471 473 474
4 474 473 69 66
4 475 460 459 476
4 476 459 462 477
4 477 462 71 62
4 470 478 479 471
4 471 479 480 473
4 473 480 61 69
4 466 469 472 467
4 467 472 474 468
4 468 474 66 65
4 478 475 476 479
4 479 476 477 480
4 480 477 62 61
4 481 482 483 484
4 485 486 487 488
4 489 490 491 492
4 482 485 488 483
4 493 489 492 494
4 490 495 496 491
4 495 497 498 496
4 486 499 500 487
4 497 481 484 498
4 499 493 494 500
4 501 502 503 504
4 505 506 507 508
4 509 510 511 512
4 502 513 514 503
4 515 516 517 518
4 519 501 504 520
4 513 509 512 514
4 516 505 508 517
4 506 519 520 507
4 510 515 518 511
4 521 522 523 524
4 525 526 527 528
4 529 530 531 532
4 533 534 535 536
4 526 521 524 527
4 530 537 538 531
4 539 533 536 540
4 522 529 532 523
4 534 525 528 535
4 537 539 540 538
4 541 542 543 544
4 545 546 547 548
4 549 550 551 552
4 542 553 554 543
4 546 555 556 547
4 557 549 552 558
4 559 545 548 560
4 550 541 544 551
4 555 557 558 556
4 553 559 560 554
3 561 562 563
3 563 564 565
3 565 566 567
3 567 568 569
3 569 570 561
3 561 563 565
3 565 567 569
3 565 569 561
4 571 572 573 574
4 575 576 577 578
4 579 580 581 582
4 583 584 585 586
4 587 588 589 590
4 591 592 593 594
4 595 596 597 598
4 599 600 601 602
4 603 604 605 606
4 607 608 609 610
4 611 612 613 614
4 615 616 617 618
4 619 620 621 622
4 620 623 624 621
4 623 80 77 624
4 625 626 620 619
4 626 627 623 620
4 627 11 80 623
4 622 621 628 629
4 621 624 630 628
4 624 77 75 630
4 629 628 631 632
4 628 630 633 631
4 630 75 73 633
4 632 631 634 635
4 631 633 636 634
4 633 73 0 636
4 637 638 639 640
4 638 641 642 639
4 641 7 8 642
4 640 639 626 625
4 639 642 627 626
4 642 8 11 627
4 643 644 638 637
4 644 645 641 638
4 645 5 7 641
4 646 647 644 643
4 647 648 645 644
4 648 3 5 645
4 647 646 635 634
4 634 636 648 647
4 636 0 3 648
